<svg xmlns="http://www.w3.org/2000/svg" viewBox="0 0 252 144"><defs><style>.cls-1{fill:#485444;}.cls-2{fill:#598749;}.cls-3{fill:#231f20;}.cls-4{fill:#ee92bd;}.cls-5{fill:#cf5b95;}</style></defs><g id="Layer_1" data-name="Layer 1"><polygon class="cls-1" points="75.62 0 75.62 0.01 0 75.63 0 0 75.62 0"/><polygon class="cls-1" points="176.38 144.01 176.38 144 252 68.38 252 144.01 176.38 144.01"/><path class="cls-2" d="M49.44,144.32l-4,.19a32,32,0,0,0-24-8.19h0c-1,.08-2,.2-3,.35h-.05a48.72,48.72,0,0,0-9.61,2.56l-.18.07a54.8,54.8,0,0,0-6.47,2.93c-.87.47-1.5.84-1.83,1A9.72,9.72,0,0,0-.5,144l-1.45-4.84s3-1.74,4.75-2.6a52.69,52.69,0,0,1,5.12-2.14c1.07-.39,2.22-.77,3.45-1.11h0c.84-.23,1.72-.46,2.62-.66l.16,0a38.12,38.12,0,0,1,18.49.19,31.39,31.39,0,0,1,9.18,4.27l.08.05,1.62,1.19A39.82,39.82,0,0,1,49.44,144.32Z"/><path class="cls-3" d="M49.53,144.36c-1.24.15-2.71.4-4.18.54a42.8,42.8,0,0,0-5.49-3.64c-11.83-6.51-26.62-5.06-38.09,1.6l-1.08.65a11.66,11.66,0,0,0-1.38,1.27l-.23-.66-1.62-4.78-.16-.45a54.88,54.88,0,0,1,13.82-6.48s-.71.94-.69.89v-.72l.7-.19c14.25-4.53,30-1,38.41,12Zm-.18-.08a25.06,25.06,0,0,1-1.82-1.76c-8.1-8.6-20.64-11.43-32.1-9.16-1.25.21-2.54.57-3.81.85l.69-.91s0,.73,0,.74a55.29,55.29,0,0,0-13.94,5.65l.28-.71,1.27,4.9-.71-.19a8.81,8.81,0,0,1,2.22-1.46c15.14-7.81,30.77-11,44.29,2l-.27-.09c1.21,0,2.47.13,3.91.14Z"/><polygon class="cls-2" points="29.89 131.56 33.05 127.52 32.64 132.79 29.89 131.56"/><path class="cls-3" d="M29.85,131.57a10.08,10.08,0,0,1,2.1-3.19A11.57,11.57,0,0,0,33.28,127l-.07.54c-.11,2,.26,4.05-.16,6a15.56,15.56,0,0,1-3.2-2Zm.09,0c1.22.33,2.11.46,2.91.78l-.72.43c0-1.78.62-3.5.76-5.24l.28.11a11.86,11.86,0,0,1-3.23,3.92Z"/><polygon class="cls-2" points="41.82 137.06 44.97 135.49 43.74 138.47 41.82 137.06"/><path class="cls-3" d="M41.77,137.06a4.8,4.8,0,0,1,2.2-1.43,5.55,5.55,0,0,0,1.35-.48c-.62,1.07-.54,2.41-1.09,3.52l-.27.64a7.93,7.93,0,0,1-2.19-2.25Zm.1,0c.82.42,1.51.52,2.18,1l-.81.23c.35-1,1.17-1.86,1.59-2.83l.21.2c-.48.26-.74.73-1.28.89s-1.08.32-1.89.55Z"/><polygon class="cls-2" points="11.37 133.31 11.37 129.41 14.15 132.61 11.37 133.31"/><path class="cls-3" d="M11.34,133.35a7,7,0,0,1-.16-3.94l.09-.51c.56,1.12,1.72,1.7,2.56,2.59a17.52,17.52,0,0,1,1.29,1.43,11.53,11.53,0,0,1-3.78.43Zm.06-.08A20.15,20.15,0,0,1,14,132.09l-.27.87c-1-1-1.49-2.46-2.52-3.43l.33-.12c.42,1.42.14,2.31-.16,3.86Z"/><polygon class="cls-2" points="18.38 136.69 20.09 140.1 21.46 136.32 18.38 136.69"/><path class="cls-3" d="M18.42,136.71c.91,1.2,1.62,1.93,1.85,3.31l-.36,0c.61-1.2.53-2.65,1.05-3.9l.56.71a17.84,17.84,0,0,1-3.1-.14Zm-.08-.05a11.22,11.22,0,0,1,3.91-.95l-.29.8c-.45,1.42-1.59,2.57-1.76,4.07a7.49,7.49,0,0,1-1.86-3.92Z"/><path class="cls-2" d="M91.48,144.2l-3.83.07c-7.73-5.06-14.55-5.69-19.67-4.65h0a23,23,0,0,0-9.8,4.6l-4.4.05a25.9,25.9,0,0,1,7.29-5.46,24.2,24.2,0,0,1,13-2.57h0C79.17,136.68,85.06,139,91.48,144.2Z"/><path class="cls-3" d="M91.57,144.23c-1.27.12-2.67.39-4,.49a50.38,50.38,0,0,0-4.74-2.3c-8-3.33-17.58-3.72-24.44,2.05l-.09.07h-.13c-1.83,0-3.7.18-5.53.29l.76-.9c4.87-6,13.31-9.56,20.67-8.75,6.75.69,12.86,4.28,17.51,9Zm-.18-.07c-5.32-3.29-11.1-6.45-17.42-6.87a26.28,26.28,0,0,0-19.83,7.31l-.38-.83c1.46,0,2.93.11,4.4.12,1.83-1.77,6.41-4,9.68-4.86a20.32,20.32,0,0,1,10.63.12,27.76,27.76,0,0,1,9.43,4.75l-.26-.08c1.24.09,2.43.3,3.75.34Z"/><polygon class="cls-2" points="61.05 138.82 60.39 136.16 62.74 137.8 61.05 138.82"/><path class="cls-3" d="M61,138.86a3.25,3.25,0,0,1-.81-1.87,11.15,11.15,0,0,0,0-1.3l.31.32c.72.63,1.81.73,2.56,1.36l.69.47a5.85,5.85,0,0,1-2.71,1Zm0-.09a14.52,14.52,0,0,1,1.4-1.42l0,.89c-.84-.48-1.31-1.48-2.14-1.94l.27-.19c.65.87.51,1.47.51,2.66Z"/><polygon class="cls-2" points="74.03 136.24 75.35 132.79 76.67 136.32 74.03 136.24"/><path class="cls-3" d="M74,136.27a5.89,5.89,0,0,1,.67-2.67,13.19,13.19,0,0,0,.75-1.3c.25,1.4,1.35,2.48,1.76,3.84l.29.75a9.65,9.65,0,0,1-3.47-.62Zm.08-.05a20.16,20.16,0,0,1,2.62-.43l-.52.72c-.52-1.16-.47-2.52-1-3.66h.32a6.36,6.36,0,0,1-1.44,3.37Z"/><polygon class="cls-2" points="67.96 139.63 69.45 142.48 70.54 139.63 67.96 139.63"/><path class="cls-3" d="M68,139.65c.85,1.06,1.44,1.52,1.6,2.75l-.32,0c.46-.91.36-2,.76-3l.5.72a14,14,0,0,1-2.54-.51Zm-.08-.05a7.74,7.74,0,0,1,3.44-.48l-.33.7c-.38,1.08-1.34,1.92-1.49,3.08a13,13,0,0,0-.83-1,4.74,4.74,0,0,1-.79-2.26Z"/><polygon class="cls-2" points="7.28 136.27 8.86 139.42 5.88 138.19 7.28 136.27"/><path class="cls-3" d="M7.28,136.22a4.9,4.9,0,0,1,1.44,2.2,5.53,5.53,0,0,0,.47,1.35c-1.06-.62-2.4-.54-3.52-1.09L5,138.41a8.2,8.2,0,0,1,2.25-2.19Zm0,.1c-.43.82-.53,1.51-1,2.18l-.23-.81c1,.36,1.86,1.17,2.84,1.59l-.2.21c-.27-.48-.74-.74-.9-1.28s-.31-1.08-.54-1.89Z"/><polygon class="cls-2" points="8.36 105.82 12.26 105.82 9.06 108.6 8.36 105.82"/><path class="cls-3" d="M8.32,105.79a7,7,0,0,1,3.94-.16l.51.09c-1.12.56-1.7,1.72-2.59,2.56-.4.43-1,.91-1.43,1.3a11.61,11.61,0,0,1-.43-3.79Zm.08.06a21.62,21.62,0,0,1,1.18,2.62l-.87-.27c1-1,2.46-1.49,3.43-2.52l.12.33c-1.42.42-2.32.14-3.86-.16Z"/><path class="cls-2" d="M-.38,144.3c24-20,0-56.08,0-56.08l-.13,7s18.1,25,.79,44.58Z"/><path class="cls-3" d="M-.33,144.21A32,32,0,0,0,7.8,131.72C12.3,118,6.63,100.32-.62,88.38l.56-.16-.11,7L-.24,95c9.57,13.37,13.5,32.36,1.29,45.44l.25-.53c-.37,1.41-1.3,2.79-1.63,4.3Zm-.1.18a19.71,19.71,0,0,1-.26-5l.22-.26c11.21-12.46,8.11-30.71-.37-43.8v-.1l.17-7,0-1,.54.83C5.32,96.8,10,106.34,11,116.73S8.43,138.39-.43,144.39Z"/><polygon class="cls-2" points="4.07 102.74 0.65 104.46 4.43 105.82 4.07 102.74"/><path class="cls-3" d="M4,102.79c-1.2.9-1.92,1.62-3.31,1.84l0-.36c1.2.62,2.65.54,3.9,1l-.71.56A17.73,17.73,0,0,1,4,102.79Zm0-.09a11.28,11.28,0,0,1,1,3.91l-.79-.29c-1.42-.45-2.58-1.58-4.08-1.75a7.47,7.47,0,0,1,3.92-1.87Z"/><polygon class="cls-2" points="11.03 117.39 15.07 120.54 10.31 120.54 11.03 117.39"/><path class="cls-3" d="M11,117.34a11,11,0,0,1,3.19,2.1,10.82,10.82,0,0,0,1.34,1.29,10.17,10.17,0,0,0-2.85.22,22.36,22.36,0,0,1-3.06.11A15.84,15.84,0,0,1,11,117.34Zm0,.1c-.12,1.37,0,2.32-.22,3.22l-.52-.65c1.6-.09,3.18.38,4.76.37l-.1.29a12.32,12.32,0,0,1-3.92-3.23Z"/><path class="cls-2" d="M199.63,111.77a.21.21,0,0,0-.27.27.22.22,0,0,0,.38-.07,12.3,12.3,0,0,0-4.35-8.4,1.36,1.36,0,0,0-.82-.4c-.31,0-.63.29-.54.59a25.14,25.14,0,0,0-11.35-3.41l-.05.82a73.29,73.29,0,0,1-8.25-.11c-1.8,0,3.11,1.62-1.84,1.35a53.14,53.14,0,0,0-6.45.62c-.41.09-3.35-.6-3.44-.11-.05.27,3.11,2.08,3.23,2.14,0,.59-.5.17-.75.25l9,6.62-1.85-.31a51.58,51.58,0,0,0,9.73,5.45l-1.36.6a30.18,30.18,0,0,0,9.19,2.38,1.91,1.91,0,0,1-.16.88,14.82,14.82,0,0,0,7.81-2.86l-.41-.38"/><path class="cls-3" d="M199.59,111.86c-.06,0-.14.13-.1.11h0s0,0,0,0a12.56,12.56,0,0,0-4.87-8c-.11-.07-.18,0,0,0s.21-.21.16-.43l-1.18.94a26.32,26.32,0,0,0-5.32-2.21,31.87,31.87,0,0,0-5.66-1.13l.8-.71c0,.37-.12,1.11-.17,1.48h-.59c-2.85.11-5.71-.46-8.53-.5h0c.05,0,.15-.21.1-.27s0,0,0,0c.32.33,1,.6.79,1.21a.77.77,0,0,1-.55.34,8.9,8.9,0,0,1-2,0l-3.48.24a20.42,20.42,0,0,0-3,.47c-1.08,0-2.11-.33-3.15-.2,0,0,.07,0,.16-.2,0,0,0-.32,0-.28s0,0,0,0a30.54,30.54,0,0,0,3.35,2V105a.83.83,0,0,1-.54.9,1.32,1.32,0,0,1-.64,0c-.05,0-.1,0,.07,0l.16-1c4.12,2.73,8.36,5.72,12.37,8.62l-3.91-.59-1.86-.28.74-1.77a61.55,61.55,0,0,0,9.57,5.29l2.19,1-2.18.92-1.38.58v-1.86a32.55,32.55,0,0,0,9.52,2.69v.6a2.73,2.73,0,0,1-.26,1.16l-.66-.94a15.2,15.2,0,0,0,7.76-2.3v.23l-.37-.42.13-.14.44.35.13.1a14.91,14.91,0,0,1-9,3.65,5,5,0,0,0,.42-1.65l.66.7a31.38,31.38,0,0,1-11.67-3.07l2.13-1,1.36-.62V118a43.29,43.29,0,0,1-5.13-2.48,85.44,85.44,0,0,1-8.27-5.69l6.07,1.15-.72,1.7q-4.44-3.39-8.74-6.92l-.93-.75,1.09-.27a1.13,1.13,0,0,1,.74.06s0,0-.08,0a.51.51,0,0,0-.24.18c-.07.15,0,.11,0,.09l.3.45a15.27,15.27,0,0,1-3.4-2.38.63.63,0,0,1,0-.38.64.64,0,0,1,.49-.45c1.26-.25,2.5.43,3.72.23,2-.31,4.12-.27,6.14-.47a8.43,8.43,0,0,0,2-.06c0,.2,0,.09-.09,0-.28-.3-1.19-.75-.61-1.23a2.42,2.42,0,0,1,1-.09,53.27,53.27,0,0,0,7.7-.3l-.67.67c0-.37,0-1.16,0-1.53a22.68,22.68,0,0,1,12.51,3.47l-1.18.94a1.2,1.2,0,0,1,.19-1c2.16-2.5,5.86,4.28,6.11,6.06a12,12,0,0,1,.37,3,.37.37,0,0,1-.32.31.33.33,0,0,1-.29-.56.34.34,0,0,1,.36,0l-.09.18Z"/><path class="cls-3" d="M197.87,113.91c-8.21-2.54-16.85-3.65-24.56-7.61-.22-.11-.64-.36-.48-.66,0,.15.08.24.19.29,4.21.75,8.43,1.6,12.57,2.7s8.72,2.51,12.28,5.28Z"/><polygon class="cls-3" points="183.69 110.08 179.35 110.18 183.28 108.13 183.69 110.08 183.69 110.08"/><path class="cls-3" d="M186.16,110.35A6.38,6.38,0,0,0,184.4,106a7.44,7.44,0,0,1,3.71,3.89l-2,.45Z"/><path class="cls-3" d="M192.81,111a1.15,1.15,0,0,1-.72,1.63c-.25.07-.94.22-1.2.28a22.32,22.32,0,0,1-4.81.44,21.66,21.66,0,0,0,4.95-2.24l.32-.2c.05,0,0,0,0,0a.81.81,0,0,0-.26,1.09l1.74-1Z"/><path class="cls-2" d="M199.48,122c-1.2-3.43-6.1-4.84-10.06-4.72l.21.54a26.58,26.58,0,0,0-10.77,3.53l.37.21a75.74,75.74,0,0,0-8.33,5.54,11.27,11.27,0,0,0-1.41,1.24c-.08.19,1.1-.05,1.31,0q-3.74,3-7.25,6.22c0,.46.69-.29,1-.24l-2.26,2.23c.29.41,1-.52,1.71-.92a16.42,16.42,0,0,0-2.56,2.71l-1.21,1.38c-.24.27-1.27,1.18-1.25,1.49,0,.75,6.12.62,7.06.64l-.7.75a57.36,57.36,0,0,1,10.7-.23l-1.09.81c3,.79,6.57-.33,9.85-1.43a6,6,0,0,0-.89,1.19,24.6,24.6,0,0,0,11.1-3.75l-.26.75a16.23,16.23,0,0,0,7.49-5.63c.45-.63,1.87-2.46,1.86-3.21,0-1-2.33-2.21-2.58-3.12s-.57-1.64-.85-2.45A21.91,21.91,0,0,0,199.48,122Z"/><path class="cls-3" d="M199.39,122c-1.53-3.78-6.32-4.54-9.95-4.32l.4-.6c.11.27.36.81.48,1.08a28.72,28.72,0,0,0-11,3.91v-1.53l.38.2,1.3.71c-3.48,2.25-8,4.8-10.83,7.11a.66.66,0,0,0-.45-.89c.38,0,.66-.09,1.17-.08l1.93,0-1.56,1.18c-2.53,1.91-5,3.86-7.43,6,.06-.22.21-.31,0-.45a.26.26,0,0,0-.16,0c.07,0,.39-.21.48-.26s1-.06,1.27-.05c-1,.89-1.92,1.82-2.86,2.73l0-.39s-.05,0-.05,0a15.58,15.58,0,0,0,1.35-1l.34.51c-1.57,1.22-2.82,3.32-4.28,4.75a3.74,3.74,0,0,0-.49.62s0,0,0,0a.33.33,0,0,0,0-.18,37.63,37.63,0,0,0,6.67.11l1.51,0-1,1.18-.68.78-.6-1.19a57.32,57.32,0,0,1,13.35-.3c-.7.5-2.41,1.85-3.09,2.35l-.33-1.69c4.39.87,9.17-1.7,13.37-2.88l-3,3.11a4.54,4.54,0,0,0-.73,1l-1-1.59a25,25,0,0,0,5.53-1.12,35.8,35.8,0,0,0,7.46-3.71c-.2.55-1,2.68-1.2,3.19l-1.22-1.14a20.68,20.68,0,0,0,5-2.63,17.52,17.52,0,0,0,3.82-4.28,2.85,2.85,0,0,0,.53-1.12c-.08-.6-1.33-1.57-1.77-2a2.62,2.62,0,0,1-.68-1c-.66-1.95-1.1-4.06-1.94-5.95Zm.18-.08a13.13,13.13,0,0,1,1,2.79c.31,1,.83,2,1.16,3.13a2.1,2.1,0,0,0,.6.77c.68.66,1.83,1.24,2.1,2.32-.13,1.62-1.4,2.77-2.18,4.11-2.1,3.2-5.63,5.06-9,6.55.18-.54.72-2.26.89-2.77l1.38,1.09A25.35,25.35,0,0,1,182,144.12a15.43,15.43,0,0,1,2.05-3.14l1.1,1.75c-3.31,1.07-6.83,2.25-10.43,1.35l-1.95-.52c.66-.49,2.08-1.49,2.72-2l.49,1.69a62,62,0,0,0-10.55,0l-1.93.15,1.33-1.34.73-.73.48,1.13c-2.32-.16-4.81,0-7.06-.71-1.22-.71.51-1.82,1-2.38l1.25-1.36a17.75,17.75,0,0,1,2.6-2.69l.34.52a6.47,6.47,0,0,0-.79.59c-.33.28-1,.74-1.33.23l-.14-.22.18-.17c.74-.76,1.5-1.49,2.23-2.26l.19.59c.06,0,0,0-.08.05l-.23.15c-.2.12-.53.32-.8.14s-.22-.36-.26-.58l.15-.14,3.49-3.28c1.17-1.09,2.37-2.15,3.58-3.19l.37,1.21c.07,0-.16,0-.27,0a3.71,3.71,0,0,1-1,.07.77.77,0,0,1-.58-1.09,1.33,1.33,0,0,1,.14-.2,39.65,39.65,0,0,1,4.15-3.42c1.81-1.29,3.71-2.45,5.61-3.59l0,1.53c-.25-.16-1.42-.81-1.69-1l1.31-.76a24.76,24.76,0,0,1,11.18-3.24l-.39.64-.4-1.16c4,0,9.1,1.08,10.77,5.13Z"/><path class="cls-3" d="M198.92,125.34c-10.93,3.48-21.63,8.82-32.44,12.65,9.72-6.37,20.69-11.79,32.44-12.65Z"/><path class="cls-3" d="M184,130.75a28.7,28.7,0,0,0-5.12-3.9,30.18,30.18,0,0,1,6.25,2.25L184,130.75Z"/><polygon class="cls-3" points="181.39 131.79 177.23 135.84 179.71 130.7 181.39 131.79 181.39 131.79"/><path class="cls-3" d="M190.89,127.88a9.57,9.57,0,0,1-4.48,6.4,8.55,8.55,0,0,0,2.49-6.55l2,.15Z"/><path class="cls-2" d="M219.42,95.34a.21.21,0,0,1,.27-.27.21.21,0,0,1-.08.37,12.29,12.29,0,0,1-8.4-4.34,1.48,1.48,0,0,1-.4-.82c0-.31.3-.64.59-.54A25.25,25.25,0,0,1,208,78.39l.82,0a75.73,75.73,0,0,0-.11-8.25c-.05-1.8,1.61,3.11,1.35-1.85a55.25,55.25,0,0,1,.61-6.44c.09-.41-.59-3.36-.11-3.44.28,0,2.09,3.11,2.15,3.23.59,0,.16-.5.25-.75l6.62,9L219.26,68a50.49,50.49,0,0,1,5.45,9.73l.6-1.37a30,30,0,0,1,2.39,9.2,2,2,0,0,0,.87-.16,14.83,14.83,0,0,1-2.85,7.81l-.38-.41"/><path class="cls-3" d="M219.33,95.39a.33.33,0,1,1,.61-.07.38.38,0,0,1-.31.32,12,12,0,0,1-8.22-3.27c-.68-.73-1.61-1.28-1.3-2.55a1.26,1.26,0,0,1,1.54-.85l-.94,1.17a22.71,22.71,0,0,1-3.48-12.5l1.54,0-.68.66a51.74,51.74,0,0,0,.31-7.69,2.41,2.41,0,0,1,.09-1c.47-.58.93.33,1.23.61.06.1.16,0,0,.09s0,0,0-.13a9.23,9.23,0,0,0,.05-1.9c.22-2.13.15-4.36.53-6.49,0-.82-1.09-4.22.54-3.77a15.71,15.71,0,0,1,2.38,3.4l-.46-.3s.07,0-.08,0a.45.45,0,0,0-.2.32l-.05-.19c-.15-.27.2-1.3.26-1.64l.76.92q3.52,4.32,6.91,8.75l-1.7.72c-.23-1.22-.9-4.81-1.14-6.07a85.34,85.34,0,0,1,5.68,8.27,41.85,41.85,0,0,1,2.49,5.13h-1.91l.62-1.36,1-2.14a31.6,31.6,0,0,1,3.06,11.67l-.69-.65a1.49,1.49,0,0,0,.59-.06l1.05-.36a14.93,14.93,0,0,1-3.52,8.88l-.13.14-.1-.13-.35-.44.15-.14.42.38h-.23a15.23,15.23,0,0,0,2.3-7.76l.94.66a3.79,3.79,0,0,1-1.77.27,32.24,32.24,0,0,0-2.69-9.52h1.86c-.33.83-1.15,2.72-1.49,3.56-1.06-2.34-2.17-4.86-3.43-7.09-.89-1.6-1.82-3.17-2.86-4.67l1.77-.74c.18,1.18.69,4.54.88,5.77-2.91-4-5.9-8.25-8.62-12.37l1-.16c0-.17,0-.12,0-.07.1.31.1.86-.29,1.06s-.51.09-.85.13l-.17-.32a25.44,25.44,0,0,0-1.86-3.06l0,0c-.05,0,.25.07.27,0,.31-.13.19-.27.19,0-.07,1,.23,2,.22,3a39.55,39.55,0,0,0-.72,6.46,8.35,8.35,0,0,1,0,2,.78.78,0,0,1-.34.54c-.61.23-.88-.46-1.22-.78,0,0-.09-.07,0,0a.27.27,0,0,0,.29-.12c.06,3,.65,6.08.49,9.12l-1.48.17.71-.8A31.86,31.86,0,0,0,209.88,84a26.6,26.6,0,0,0,2.22,5.32l-.94,1.17c.21.06.38,0,.43-.15s0-.08,0,0a12.62,12.62,0,0,0,8,4.87c.07-.13-.12,0-.09,0l-.18.1Z"/><path class="cls-3" d="M221.56,93.58c-2.77-3.56-4.08-8-5.28-12.28s-2-8.36-2.71-12.57c0-.11-.14-.23-.28-.2.3-.16.54.27.65.49,4,7.71,5.08,16.35,7.62,24.56Z"/><polygon class="cls-3" points="215.77 78.99 217.83 75.06 217.73 79.4 215.77 78.99 215.77 78.99"/><path class="cls-3" d="M217.54,83.82a7.46,7.46,0,0,1-3.88-3.71A6.4,6.4,0,0,0,218,81.87l-.45,1.95Z"/><path class="cls-3" d="M219.68,86.78a.81.81,0,0,0-1.09.26s0,.07,0,0l.21-.32A21.21,21.21,0,0,0,221,81.79a22.62,22.62,0,0,1-.71,6,1.27,1.27,0,0,1-.26.46,1.13,1.13,0,0,1-1.37.26l1-1.74Z"/><path class="cls-2" d="M229.65,95.18c-3.44-1.19-4.85-6.09-4.72-10.05l.54.21A26.41,26.41,0,0,1,229,74.57l.21.37a78.7,78.7,0,0,1,5.54-8.33A12.25,12.25,0,0,1,236,65.2c.2-.08,0,1.1,0,1.31q3-3.74,6.21-7.25c.46,0-.28.69-.24,1L244.16,58c.42.29-.51,1-.91,1.71A16.42,16.42,0,0,1,246,57.17L247.33,56c.27-.23,1.18-1.26,1.49-1.24.76,0,.63,6.12.65,7.06l.75-.7a57.36,57.36,0,0,0-.23,10.7l.81-1.09c.78,3-.33,6.57-1.44,9.85a6.07,6.07,0,0,1,1.2-.9,24.84,24.84,0,0,1-3.75,11.11l.75-.26A16.25,16.25,0,0,1,241.92,98c-.63.45-2.46,1.86-3.2,1.86-1,0-2.21-2.33-3.12-2.58s-1.64-.57-2.45-.85A21,21,0,0,1,229.65,95.18Z"/><path class="cls-3" d="M229.61,95.28c-4.06-1.67-5.08-6.8-5.14-10.77.31.09.87.3,1.17.39l-.64.4a24.87,24.87,0,0,1,3.23-11.18L229,72.8c.16.3.85,1.44,1,1.7l-1.53,0c1.14-1.9,2.3-3.8,3.59-5.61a37.4,37.4,0,0,1,3.42-4.16l.1-.07.1-.06a.75.75,0,0,1,1.08.58,4.2,4.2,0,0,1-.06,1c0,.11,0,.34,0,.26l-1.22-.36c1.05-1.22,2.11-2.41,3.19-3.59L241.9,59l.13-.15.34.06a.5.5,0,0,1,.28.66,5,5,0,0,1-.32.57c0,.06-.05.14-.05.08l-.59-.19c.82-.79,1.61-1.61,2.43-2.41.77.37.39,1,0,1.46a9.18,9.18,0,0,0-.6.79l-.51-.33a18.33,18.33,0,0,1,2.69-2.61l1.36-1.24c.57-.5,1.66-2.21,2.38-1,.75,2.25.54,4.74.71,7.06L249,61.28l.72-.73,1.34-1.34-.15,1.94a62,62,0,0,0,0,10.55l-1.69-.49c.47-.64,1.49-2.07,2-2.73l.53,2c.89,3.59-.28,7.12-1.36,10.43l-1.75-1.11a16.19,16.19,0,0,1,3.15-2,25.44,25.44,0,0,1-4.17,13.52l-1.1-1.38,2.78-.89a24.72,24.72,0,0,1-4.22,7,21.47,21.47,0,0,1-5.55,4,1.82,1.82,0,0,1-.9.19,2.66,2.66,0,0,1-1.36-1,14.1,14.1,0,0,0-1.46-1.6c-2-.94-4.19-1.36-6.18-2.31Zm.08-.19c1.88.85,4,1.28,5.95,2a2.48,2.48,0,0,1,1,.68c.47.42,1.45,1.7,2.05,1.76a3,3,0,0,0,1.12-.52,17.68,17.68,0,0,0,4.27-3.82,20.55,20.55,0,0,0,2.64-5l1.14,1.22-3.2,1.2a35.56,35.56,0,0,0,3.71-7.46,24.46,24.46,0,0,0,1.12-5.53l1.59,1a5,5,0,0,0-1,.74l-3.1,3c1.17-4.21,3.74-9,2.87-13.37l1.7.33-.83,1.08-1.53,2a57.86,57.86,0,0,1,.3-13.35l1.19.6-.77.68-1.19,1,0-1.5a37.58,37.58,0,0,0-.12-6.67.37.37,0,0,0,.19,0,3.37,3.37,0,0,0-.62.48c-1.42,1.46-3.52,2.71-4.74,4.27l-.52-.33c.3-.52.77-.85,1-1.35,0,0,0,.06,0,.05l.39,0c-.91.93-1.85,1.89-2.73,2.86l-.06-.77a.86.86,0,0,1,.11-.5l.16-.29a1.19,1.19,0,0,0,.1-.2s0,0,0,0a.26.26,0,0,0,.18.26l.31-.12c-2.09,2.4-4,4.91-6,7.44l-1.17,1.56,0-1.93c0-.51.09-.8.09-1.18a.66.66,0,0,0,.89.46c-2.32,2.83-4.86,7.34-7.11,10.83l-.71-1.31-.21-.37h1.54a28.57,28.57,0,0,0-3.91,11l-1.08-.47.6-.4c-.23,3.62.53,8.42,4.32,9.94Z"/><path class="cls-3" d="M233,94.63c.86-11.75,6.28-22.72,12.64-32.44C241.81,73,236.47,83.69,233,94.63Z"/><path class="cls-3" d="M236.75,80.79a30.18,30.18,0,0,1-2.25-6.25,29.07,29.07,0,0,0,3.9,5.12l-1.65,1.13Z"/><polygon class="cls-3" points="238.35 75.42 243.48 72.93 239.44 77.09 238.35 75.42 238.35 75.42"/><path class="cls-3" d="M235.37,84.6a8.46,8.46,0,0,0,6.55-2.49,9.51,9.51,0,0,1-6.39,4.49l-.16-2Z"/><path class="cls-4" d="M192.34,121.21c-.35-1.56-1.68-2.7-2.29-4.17-1.07-2.56.22-5.48,1.83-7.74s3.62-4.39,4.2-7.1c.19-.91.22-1.85.48-2.74,1.19-4.06,6.52-5.33,8.75-8.92.91-1.46,1.37-3.37,2.88-4.18s3.11-.24,4.68.09a18.42,18.42,0,0,0,8.88-.32,6.55,6.55,0,0,1,3-.47c2.09.39,3,2.85,4.57,4.25,2,1.8,5.35,1.91,7,4.09,1.05,1.42,1.11,3.38,2.11,4.84.89,1.31,2.39,2,3.7,2.92s2.58,2.2,2.52,3.79a7.69,7.69,0,0,1-.58,2.12c-1.23,3.69-.2,7.7-.2,11.58a4.9,4.9,0,0,1-.31,2c-1,2.32-4.54,2.23-6.2,4.16a7.45,7.45,0,0,0-1.29,3.62c-.47,2.63-1.4,5.57-3.84,6.65a7.59,7.59,0,0,1-3.67.4,25,25,0,0,1-5.69-1.13c-2.1-.68-4.26-1.66-6.42-1.24a15.63,15.63,0,0,0-4,1.79,5.27,5.27,0,0,1-4.23.6,8.71,8.71,0,0,1-2.37-1.79,10.69,10.69,0,0,0-7.3-2.55c-1.36.06-2.79.37-4.05-.17a4.35,4.35,0,0,1-2.35-3.64,12.93,12.93,0,0,1,.6-4.48"/><path class="cls-5" d="M201.63,109.05l3.52-1.7c1.38-3.78,3.4-7.86,7-9.67a16.49,16.49,0,0,1,8.53-1.53,2.72,2.72,0,0,1,2.39-1.26c2.41,0,4.82-.11,7.23-.12.11,0,.2,0,.31,0l-1.76-4.29c-7.21-.45-16.14,1.16-22.62,5.27a2.75,2.75,0,0,1-.17.29c-.94,1.22-1.86,2.46-2.7,3.74a23.76,23.76,0,0,0-2.19,6.47c-.18.82.72,2.86.2,3.21Z"/><path class="cls-5" d="M235,96.39s2.46,2.52,2.33,7.47-3.9-3.86-3.9-3.86l-3.29-5.71S233.38,94.67,235,96.39Z"/><path class="cls-5" d="M243,102.74l-1.41,3.1a75.73,75.73,0,0,1-1.84,9.32c-.91,2.71-2.85,6.46-4.86,8.14a33.82,33.82,0,0,1-4.31,3l-1.49,2.52-2.13-1,3.77-5.06,3.35-2.11,2.08-5.79,1.41-9,1.81-5.21Z"/><path class="cls-5" d="M234.28,127.18l-2.54,5.39s-1,1.43-2.71.21-2-.54-2-.54-1.57,2.24-3,1.69-8.23-4.58-8.23-4.58l5.47,1.2,3.57.73,1.58-3.24,3.09,1.62Z"/><path class="cls-5" d="M214.55,129.84l.83,1.73-7.83.79H204s-4.39-1.89-7.84-11.23,2.63-.49,2.63-.49l3.42,4.9,3.3,4.46,3.94-1.2h3.94"/><path class="cls-5" d="M198.24,122.42l-3-2.58s-3.47-3.09-1.46-7.1,4.28-5.13,4.28-5.13l1.16,2.83-3.14,4Z"/><path class="cls-5" d="M219.55,122l-5.82,1.6h0l-5.87-4.3,0-.08a4.19,4.19,0,0,1-1.61-1.68,20.12,20.12,0,0,1-1.88-6,5.84,5.84,0,0,1,.4-3.63c-.19-1.31-.76-1.75-2.31,2.17-2.92,7.39,3.66,13.22,3.66,13.22s2.46,3.26,9.34,3.52c6.44.25,8.08-5.62,8.26-6.37,0,0,0-.06-.07,0l-2.4,0C220.91,120.52,219.82,122,219.55,122Z"/><path class="cls-5" d="M219.28,117.72s-4.47,3.15-7.34.29-3.14-3.17-4-7.17a8.6,8.6,0,0,1,1.12-6.66s2.75-6.75,9.55-2-2.73,1.18-2.73,1.18l-4.13,2.8-1,4,2.49,5.11Z"/><path class="cls-5" d="M220.14,118.35s4.45.32,5.43-2,2.31-4,.93-9-6.82-3.89-6.82-3.89l-1.82,2.39,4.88,1.16,1.93,3.44-1.78,5.1Z"/><polygon class="cls-5" points="224.33 110.86 222.47 115.47 218.95 117.59 212.76 114.4 211.09 108.92 213.21 103.86 217.15 103.14 218.33 105.21 222.74 107 224.33 110.86"/><path class="cls-5" d="M222.89,100.46a7.5,7.5,0,0,1,7.57.82c3.85,2.78,2,12.77,2,12.77a9.4,9.4,0,0,1-4.91,5.79c-3.94,2.11,1.88-5.13,1.88-5.13l.36-5.5L228,103.86Z"/><path class="cls-3" d="M219.88,111.12a2.22,2.22,0,0,1-3.18,1.62c-1.36-.57-1.7-2.39-1.65-3.69a4.67,4.67,0,0,1,3.9-4.5c6.84-.57,7.36,8.73,3.14,12.36-3,3-7.46,1-10.27-1.16a8.75,8.75,0,0,1-.7-10.83,5.91,5.91,0,0,1,3.22-2,14.28,14.28,0,0,1,3.35.12l0,.3c-1,.38-2.1.68-3,1.06-.26.12-.17.13-.42.34-1.93,1.55-2.08,4.38-1.3,6.65a7.11,7.11,0,0,0,1,2.12,11.5,11.5,0,0,0,4.76,2.58c2.82.43,5.36-2.53,5.12-5.32,0-3.21-4.77-5.14-6.3-2a4.66,4.66,0,0,0-.22,2.33c.38,1,1.64.77,2.29,0l.27.13Z"/><path class="cls-3" d="M221,120.61c-1.27,3.79-6.4,5.71-10.12,4-2.61-.94-4.19-3.51-5-5.93a24.33,24.33,0,0,1-2.16-10.81,13.3,13.3,0,0,1,2-7.4c3.72-6.17,11.84-9.31,16.82-2.68a13.73,13.73,0,0,1,1.47,3.47l-.27.15a29.27,29.27,0,0,0-2.34-2.59A9.24,9.24,0,0,0,217.14,97a9,9,0,0,0-4.3,1,15.17,15.17,0,0,0-7.52,10.16,11.2,11.2,0,0,0,.15,6.83,21.79,21.79,0,0,0,4,5.56,7.84,7.84,0,0,0,11.26,0l.26.16Z"/><path class="cls-3" d="M217.82,95.61a20.69,20.69,0,0,1,5.92-2,12.26,12.26,0,0,1,5-.14c3,.88,3.56,4.27,5.13,6.47,1.32,2.29,3.36,3.93,4.82,6.17.89,1.59.34,3.75,0,5.22a37.86,37.86,0,0,1-1.85,5.91,16.52,16.52,0,0,1-2.42,4.38c-2.39,2.49-6.22,1-8-1.36l.17-.24c1.83.69,4.47,1.7,5.75-.13a37.43,37.43,0,0,0,1.48-3.82l2.12-5.56c.45-1.38,1-2.37.83-3.66A25.34,25.34,0,0,0,231,98.27,10.54,10.54,0,0,0,229,96.48c-1.53-.8-3.28-.43-5-.49-2,0-4,0-6.08-.09l-.07-.29Z"/><path class="cls-3" d="M231.81,121.9a16.71,16.71,0,0,0-4,5.8c-.6,1.26-.78,2.12-1.48,3.49a3,3,0,0,1-1.13,1.16c-1.38.75-2.59-.19-3.7-.69a21.66,21.66,0,0,0-6.78-2.3,15.64,15.64,0,0,0-7.15.85,5.39,5.39,0,0,1-2.14.49A2.2,2.2,0,0,1,204,130c-1.12-1.23-2-2.4-3-3.69-4.35-5.63-10.31-12.21-1.1-16.86A14.28,14.28,0,0,1,204,108l-.11.38-.17.64-.3,0-.09-.66.39.28c-2.21,1.55-4.89,3.35-5.78,5.9-.21,2.59,2,4.77,3.32,7s3.21,4.94,4.45,7.18a3.63,3.63,0,0,0,1.49-.08,52.12,52.12,0,0,1,7.58-.3c3,0,6.43.27,9.31,1.56.13,0-.12,0-.18,0,.49-.72,1.21-2.42,1.85-3.35a10.84,10.84,0,0,1,5.89-5l.13.27Z"/><path class="cls-3" d="M199.39,110.05a21,21,0,0,1-5-8.2c-1-2.39.42-4.81,2.42-6.11,3.2-2.22,6.93-3.14,8.7-6.71.77-1.24.61-2.46,1.82-3.61s3-.52,4.38-.34a32.38,32.38,0,0,0,10.58,0c1.44-.16,2.45-.63,4.09-.47s3.08,2,3.46,3.45a22.26,22.26,0,0,1,1.29,7.59l-.29,0c-1.18-2.73-2.29-5.65-4-7.92-.62-.54-1.18-.17-2.07,0a24.24,24.24,0,0,1-13.61-.34c-3.6-1.47-2.93-.66-4.76,2.13-2.06,3.14-5.48,5.55-8,8.1a5.87,5.87,0,0,0-1.68,2.25,8.62,8.62,0,0,0,.55,3,70.75,70.75,0,0,0,2.32,7l-.25.17Z"/><path class="cls-3" d="M229.81,90.36a4.93,4.93,0,0,1,5.3,1,18.66,18.66,0,0,1,1.48,2.39c1,1.49,2.75,2.59,3.27,4.4a5.62,5.62,0,0,1-.1,4.9,5.68,5.68,0,0,1-2,2.84l-.25-.15-.29-2.51a16.6,16.6,0,0,1,0-2.34c0-.58,0-1.43-.07-2.07-.22-1.42,0-3.38-1.25-4.44a6.37,6.37,0,0,0-2.21-1,9.53,9.53,0,0,1-1.9-1.15,18.76,18.76,0,0,1-2-1.61l0-.29Z"/><path class="cls-3" d="M239.16,99c2.91,1.51,5.62,3.35,8.37,5.11-3.47,5.27-4.48,8.77-2.27,14.92a3.94,3.94,0,0,1,.27,1.45,2.5,2.5,0,0,1-1.12,1.79c-3.66,2.26-7.22,4.31-10.8,6.53-1.33.87-3.47,2.36-5.19,1.25-.87-.62-1-1.41-1.66-1.48l-.09-.29a1.07,1.07,0,0,1,.73-.1c.54.1,1.19.61,1.61.66a1.88,1.88,0,0,0,1.4-.59c1-.92,2.22-2.22,3.39-3.11a36.81,36.81,0,0,1,9.51-5c.13.26.11-.41.1-.79,0-2-.12-3.94-.26-5.89-.26-3.21-.76-6.9,1.47-9.69l.33,1.87a21.6,21.6,0,0,1-6-6.39l.2-.22Z"/><path class="cls-3" d="M237.44,125.14c.17,3.51-.36,7.14-2.55,10a3.87,3.87,0,0,1-2.23.95,51.17,51.17,0,0,1-6.18,1.38,13.9,13.9,0,0,1-6.35-1.24,11.1,11.1,0,0,1-5.7-6.25l.24-.18a39.65,39.65,0,0,0,13.87,5.67,6.85,6.85,0,0,0,3.83-.31,1.51,1.51,0,0,0,1.25-1.74,16.27,16.27,0,0,1,3.53-8.32l.29.09Z"/><path class="cls-3" d="M199.44,122.55a12,12,0,0,1-6.39-2.06c-.91-.69-1.63-1.57-2.63-2.24a3,3,0,0,1-1.19-1.6c-1.51-5.14.93-11.46,6.27-13.11.15,0,.49,0,.48.44a.31.31,0,0,1-.19.21c-.14.09-.37,0-.33-.19h.3s0-.09-.08-.12a.19.19,0,0,0-.1,0s0,0-.08,0c0,.39.23.17.18.38l-.51.93c-1.22,2.27-2.34,4.56-3.45,6.86-.46,1.35-1.43,2.93-1.5,4.38.22,1.58,2.75,1.3,4,1.82a10.58,10.58,0,0,1,2.91,1.59,10.91,10.91,0,0,1,2.48,2.42l-.14.27Z"/><path class="cls-3" d="M218.7,133.81a58.19,58.19,0,0,0-10,5c-2.11-1.92-3.6-5.06-6.38-5.66-3.25-.8-6.91,1.07-10.07-.6a3.06,3.06,0,0,1-1.06-2.54,39.41,39.41,0,0,1,0-5,13.33,13.33,0,0,0-1.11-7.3l.22-.21a9.36,9.36,0,0,1,3.8,7.45,31.74,31.74,0,0,1,.18,5.44.67.67,0,0,0-.21-.25c1.07.42,3,.51,4.52.88,4.15.62,7.61,3.16,11.11,5.26l-1.52-.07a13,13,0,0,1,4.93-2.55,10.74,10.74,0,0,1,5.54-.13l0,.3Z"/><path class="cls-3" d="M217.36,106.47c-1-2.85,1.62-5.92,4.42-6.42,6.5-1.21,10.15,9.07,8.84,14.19-.55,2.28-1.27,4.78-3.36,6.22-2.9,1.83-7.39.74-8.86-2.28l.22-.2c2.27,1.35,5.91,1.38,7.34-.61a19.64,19.64,0,0,0,1-1.83c2.21-4.37,3.93-12.05-2.88-12.84a5.81,5.81,0,0,0-6.45,3.76Z"/><path class="cls-2" d="M52.41,32.61a.21.21,0,0,0,.27-.27.21.21,0,0,0-.37.07,12.29,12.29,0,0,0,4.34,8.4,1.36,1.36,0,0,0,.82.4c.31,0,.64-.29.54-.59A25.26,25.26,0,0,0,69.36,44l0-.82a73.29,73.29,0,0,1,8.25.11c1.8,0-3.11-1.62,1.85-1.35A53.53,53.53,0,0,0,86,41.35c.4-.09,3.35.6,3.43.11,0-.28-3.11-2.08-3.23-2.14,0-.59.5-.17.75-.25l-9-6.62,1.84.31a51.58,51.58,0,0,0-9.73-5.45l1.37-.6a30.24,30.24,0,0,0-9.2-2.38,2.05,2.05,0,0,1,.16-.88,14.83,14.83,0,0,0-7.81,2.85l.41.39"/><path class="cls-3" d="M52.46,32.52s.14-.13.09-.11h0s0,0,0,0a12.61,12.61,0,0,0,4.87,8c.11.08.18,0,0,0s-.2.21-.15.43l1.17-.94a26.56,26.56,0,0,0,5.32,2.21,31.87,31.87,0,0,0,5.66,1.13l-.8.71c.05-.38.12-1.11.17-1.48h.59c2.85-.11,5.71.46,8.53.5h0c-.05,0-.15.21-.1.27s0,0,0,0c-.32-.33-1-.6-.78-1.22a.75.75,0,0,1,.54-.33,9,9,0,0,1,2-.05L83,41.42a20,20,0,0,0,3-.47c1.09,0,2.11.33,3.15.2,0,0-.07,0-.16.2,0,0,0,.32,0,.28s0,0,0,0a30.4,30.4,0,0,0-3.34-2v-.29a.8.8,0,0,1,.54-.89,1.41,1.41,0,0,1,.63,0s.1,0-.07,0l-.16,1c-4.12-2.73-8.36-5.72-12.37-8.63l3.92.6,1.85.28-.74,1.77a61.1,61.1,0,0,0-9.57-5.29l-2.19-1,2.18-.92L71,25.78v1.86A32.27,32.27,0,0,0,61.51,25v-.6a2.73,2.73,0,0,1,.26-1.16l.66.93a15.43,15.43,0,0,0-7.76,2.3V26.2l.38.42-.14.14-.44-.35-.13-.1a14.87,14.87,0,0,1,9-3.65A4.9,4.9,0,0,0,63,24.3l-.65-.69A31.6,31.6,0,0,1,74,26.67l-2.14,1-1.36.62v-1.9a41.79,41.79,0,0,1,5.13,2.48,86.83,86.83,0,0,1,8.28,5.69l-6.08-1.15.72-1.7q4.44,3.38,8.75,6.92l.92.75-1.09.27a1.14,1.14,0,0,1-.74-.06h.09a.49.49,0,0,0,.23-.18c.07-.15,0-.11,0-.09l-.3-.45a15,15,0,0,1,3.4,2.38s.09.32,0,.37a.65.65,0,0,1-.48.46c-1.27.25-2.51-.43-3.73-.23-2,.31-4.12.26-6.14.47a8.45,8.45,0,0,0-2,.06c0-.2,0-.1.09,0,.28.3,1.19.75.61,1.23a2.54,2.54,0,0,1-1,.09,53.21,53.21,0,0,0-7.7.3l.67-.67c0,.37,0,1.16,0,1.53a22.64,22.64,0,0,1-12.5-3.47l1.17-.94a1.17,1.17,0,0,1-.19,1c-2.16,2.5-5.85-4.28-6.1-6.06a12,12,0,0,1-.38-3,.37.37,0,0,1,.33-.31.32.32,0,0,1,.28.56.33.33,0,0,1-.36.05l.1-.18Z"/><path class="cls-3" d="M54.17,30.47C62.38,33,71,34.11,78.73,38.08c.22.11.65.36.49.66,0-.15-.09-.24-.2-.29-4.21-.75-8.43-1.6-12.57-2.71s-8.72-2.5-12.28-5.27Z"/><polygon class="cls-3" points="68.35 34.29 72.69 34.2 68.76 36.25 68.35 34.29 68.35 34.29"/><path class="cls-3" d="M65.88,34a6.45,6.45,0,0,0,1.76,4.34,7.44,7.44,0,0,1-3.71-3.89L65.88,34Z"/><path class="cls-3" d="M59.23,33.33A1.15,1.15,0,0,1,60,31.71c.25-.07.94-.22,1.2-.28A22.32,22.32,0,0,1,66,31,21.66,21.66,0,0,0,61,33.23l-.32.2s0,0,0,0A.8.8,0,0,0,61,32.35l-1.74,1Z"/><path class="cls-2" d="M52.57,22.37c1.19,3.44,6.09,4.85,10,4.73l-.21-.54A26.58,26.58,0,0,0,73.18,23l-.37-.21a77.19,77.19,0,0,0,8.33-5.54A10.6,10.6,0,0,0,82.55,16c.08-.19-1.1.05-1.31,0q3.74-3,7.26-6.22c0-.46-.7.29-1,.24l2.26-2.23c-.29-.42-1,.52-1.71.92a16.42,16.42,0,0,0,2.56-2.71L91.8,4.69C92,4.42,93.06,3.51,93,3.2c0-.75-6.12-.62-7.06-.64l.7-.75A56.48,56.48,0,0,1,76,2l1.09-.81c-3-.78-6.57.34-9.85,1.44a6.32,6.32,0,0,0,.9-1.19A24.6,24.6,0,0,0,57,5.22l.26-.75a16.23,16.23,0,0,0-7.49,5.63c-.45.63-1.86,2.46-1.86,3.2,0,1,2.33,2.22,2.58,3.13s.57,1.63.85,2.45A20.89,20.89,0,0,0,52.57,22.37Z"/><path class="cls-3" d="M52.66,22.33c1.52,3.79,6.32,4.55,9.94,4.32l-.4.61c-.11-.28-.36-.81-.47-1.08a28.73,28.73,0,0,0,11-3.91V23.8l-.37-.2-1.3-.72c3.48-2.24,8-4.79,10.82-7.11a.67.67,0,0,0,.46.9c-.39,0-.67.09-1.18.08l-1.93,0,1.56-1.18c2.54-1.91,5-3.86,7.44-5.95-.07.22-.21.31,0,.45a.24.24,0,0,0,.17,0c-.07,0-.4.21-.49.27s-1,.06-1.27,0c1-.88,1.93-1.82,2.87-2.73l0,.4s.06,0,0,0c-.5.22-.83.69-1.35,1l-.33-.52c1.56-1.22,2.81-3.31,4.27-4.74a3.74,3.74,0,0,0,.49-.62h0a.24.24,0,0,0,0,.18A38.57,38.57,0,0,0,86,3.23l-1.5,0,1-1.18.68-.78.6,1.19a57.31,57.31,0,0,1-13.35.3C74.11,2.3,75.82,1,76.5.46l.33,1.69C72.45,1.28,67.66,3.85,63.46,5l3-3.11a5,5,0,0,0,.74-1l1,1.59a24.46,24.46,0,0,0-5.53,1.12,35.56,35.56,0,0,0-7.46,3.71c.2-.55,1-2.68,1.2-3.19l1.23,1.14a20.75,20.75,0,0,0-5,2.63,17.68,17.68,0,0,0-3.82,4.27,3.1,3.1,0,0,0-.52,1.12c.07.61,1.33,1.58,1.76,2.05a2.62,2.62,0,0,1,.68,1c.67,1.95,1.1,4.06,1.95,5.94Zm-.19.09a14.15,14.15,0,0,1-1-2.79c-.31-1.05-.83-2.05-1.15-3.13a2,2,0,0,0-.61-.77c-.68-.67-1.82-1.25-2.1-2.32.14-1.62,1.4-2.77,2.18-4.12,2.1-3.19,5.63-5,9-6.55-.18.54-.72,2.27-.88,2.78L56.52,4.43A25.29,25.29,0,0,1,70,.26,15.82,15.82,0,0,1,68,3.4L66.88,1.65C70.2.58,73.72-.6,77.31.3l2,.52c-.67.49-2.08,1.49-2.73,2L76.05,1.1a63,63,0,0,0,10.55,0L88.54,1,87.2,2.29,86.47,3,86,1.88c2.32.17,4.81,0,7.06.71,1.22.72-.51,1.83-1,2.39L90.81,6.33A17.91,17.91,0,0,1,88.2,9l-.33-.52a7.34,7.34,0,0,0,.79-.59c.33-.29,1-.74,1.32-.23l.14.22L90,8.08c-.75.75-1.51,1.49-2.24,2.26l-.19-.59c-.06,0,0,0,.08-.05l.24-.15c.19-.12.52-.32.79-.14s.22.36.26.58l-.15.13-3.48,3.29c-1.18,1.08-2.37,2.15-3.59,3.19l-.36-1.22c-.08,0,.15,0,.26,0a4.17,4.17,0,0,1,1-.06.76.76,0,0,1,.58,1.08,1.6,1.6,0,0,1-.13.21A39.76,39.76,0,0,1,78.89,20c-1.81,1.29-3.71,2.45-5.61,3.59l0-1.53c.26.16,1.42.81,1.7,1l-1.32.76A24.62,24.62,0,0,1,62.45,27l.4-.64c.09.29.29.88.39,1.17-4-.05-9.1-1.08-10.77-5.13Z"/><path class="cls-3" d="M53.12,19c10.94-3.49,21.63-8.82,32.44-12.65C75.84,12.76,64.87,18.18,53.12,19Z"/><path class="cls-3" d="M68.09,13.63a29.56,29.56,0,0,0,5.12,3.9A30.76,30.76,0,0,1,67,15.28l1.13-1.65Z"/><polygon class="cls-3" points="70.66 12.58 74.82 8.54 72.33 13.67 70.66 12.58 70.66 12.58"/><path class="cls-3" d="M61.15,16.5a9.51,9.51,0,0,1,4.49-6.4,8.47,8.47,0,0,0-2.49,6.55l-2-.15Z"/><path class="cls-2" d="M32.63,49a.21.21,0,0,1-.27.27.21.21,0,0,1,.07-.38,12.3,12.3,0,0,1,8.4,4.35,1.41,1.41,0,0,1,.4.82c0,.31-.29.64-.59.54A25.26,25.26,0,0,1,44.05,66l-.82.05a73.29,73.29,0,0,0,.11,8.25c0,1.8-1.62-3.11-1.35,1.84a55.23,55.23,0,0,1-.62,6.45c-.09.41.6,3.35.11,3.44-.28,0-2.08-3.11-2.14-3.23-.6,0-.17.5-.26.75l-6.62-9,.32,1.84a51.58,51.58,0,0,1-5.45-9.73l-.6,1.37a30,30,0,0,1-2.38-9.2,2.05,2.05,0,0,0-.88.16,14.83,14.83,0,0,1,2.85-7.81l.39.41"/><path class="cls-3" d="M32.71,49a.32.32,0,1,1-.6.07.37.37,0,0,1,.3-.32A12,12,0,0,1,40.63,52c.68.73,1.61,1.28,1.3,2.54a1.27,1.27,0,0,1-1.53.86l.94-1.17a22.62,22.62,0,0,1,3.47,12.5l-1.53,0,.67-.67a51.93,51.93,0,0,0-.3,7.7,2.6,2.6,0,0,1-.1,1c-.47.58-.92-.34-1.22-.61-.07-.1-.17,0,0-.09s0,0,0,.13a9.14,9.14,0,0,0-.05,1.89c-.22,2.14-.14,4.37-.52,6.5,0,.82,1.08,4.22-.54,3.77A15.27,15.27,0,0,1,38.85,83l.45.3s-.07,0,.09,0a.41.41,0,0,0,.19-.32l.05.18c.16.28-.19,1.31-.26,1.65l-.75-.93q-3.54-4.3-6.92-8.74l1.7-.72,1.15,6.07a85.44,85.44,0,0,1-5.69-8.27,43.35,43.35,0,0,1-2.49-5.13h1.91l-.62,1.36-1,2.14a31.6,31.6,0,0,1-3.06-11.68l.69.66a1.27,1.27,0,0,0-.58.06L22.68,60a14.93,14.93,0,0,1,3.52-8.88l.13-.14.1.13.35.44-.15.14-.42-.38h.23a15.4,15.4,0,0,0-2.3,7.76l-.93-.66A3.75,3.75,0,0,1,25,58.13a32.24,32.24,0,0,0,2.69,9.52H25.8c.33-.83,1.16-2.72,1.5-3.56,1.05,2.34,2.17,4.86,3.42,7.09.89,1.59,1.82,3.17,2.86,4.67l-1.77.74c-.18-1.18-.69-4.55-.88-5.77,2.91,4,5.9,8.24,8.62,12.37l-1,.16c0,.17,0,.12,0,.07-.1-.32-.1-.86.29-1.06s.51-.09.85-.13l.18.32a23.76,23.76,0,0,0,1.86,3.06s0,0,0,0-.25-.06-.27,0c-.31.13-.19.27-.18,0,.06-1-.24-2-.23-3a39.55,39.55,0,0,0,.72-6.47,8.32,8.32,0,0,1,0-2,.79.79,0,0,1,.33-.55c.62-.22.88.47,1.22.79,0,0,.1.06,0,0a.25.25,0,0,0-.28.12c-.06-3-.66-6.08-.49-9.12L44,65.23l-.71.8a31.87,31.87,0,0,0-1.13-5.66A26.91,26.91,0,0,0,40,55.05l.94-1.17c-.22-.06-.39,0-.43.15s0,.08-.05,0a12.6,12.6,0,0,0-8-4.87c-.07.13.13,0,.1,0l.17-.1Z"/><path class="cls-3" d="M30.49,50.8c2.77,3.56,4.07,8,5.27,12.28s2,8.36,2.71,12.57c.05.11.14.23.29.2-.3.16-.55-.28-.66-.49C34.13,67.65,33,59,30.49,50.8Z"/><polygon class="cls-3" points="36.27 65.39 34.22 69.31 34.31 64.98 36.27 65.39 36.27 65.39"/><path class="cls-3" d="M34.5,60.56a7.48,7.48,0,0,1,3.89,3.71,6.45,6.45,0,0,0-4.34-1.76l.45-1.95Z"/><path class="cls-3" d="M32.37,57.6a.8.8,0,0,0,1.08-.26s0-.07,0,0l-.2.32a21.66,21.66,0,0,0-2.24,5,22.23,22.23,0,0,1,.72-6,1.24,1.24,0,0,1,.25-.46,1.13,1.13,0,0,1,1.37-.26l-1,1.74Z"/><path class="cls-2" d="M22.39,49.19c3.44,1.2,4.85,6.1,4.73,10.06L26.57,59a26.41,26.41,0,0,1-3.52,10.77l-.21-.37a77.19,77.19,0,0,1-5.54,8.33,11.36,11.36,0,0,1-1.24,1.41c-.19.08.05-1.1,0-1.31q-3,3.73-6.22,7.25c-.46,0,.28-.69.24-1L7.88,86.36c-.42-.29.52-1,.91-1.71a16.35,16.35,0,0,1-2.7,2.56L4.71,88.42c-.27.24-1.18,1.27-1.49,1.25-.75,0-.62-6.12-.64-7.06l-.76.7a56.51,56.51,0,0,0,.23-10.7L1.24,73.7c-.78-3,.34-6.57,1.44-9.85a6,6,0,0,1-1.2.89,24.84,24.84,0,0,1,3.75-11.1l-.74.26a16.23,16.23,0,0,1,5.63-7.49c.63-.45,2.46-1.87,3.2-1.86,1,0,2.21,2.33,3.13,2.58s1.63.57,2.44.85A21.58,21.58,0,0,1,22.39,49.19Z"/><path class="cls-3" d="M22.43,49.1c4.06,1.67,5.08,6.8,5.14,10.77-.3-.09-.87-.31-1.17-.39l.64-.4a24.62,24.62,0,0,1-3.23,11.18l-.76,1.31c-.16-.29-.84-1.43-1-1.69l1.54,0c-1.15,1.9-2.3,3.8-3.6,5.61a38.34,38.34,0,0,1-3.41,4.15l-.11.08-.1.06a.76.76,0,0,1-1.08-.58,4.2,4.2,0,0,1,.06-1c0-.11,0-.34,0-.27l1.22.37c-1,1.21-2.11,2.41-3.19,3.58l-3.29,3.49-.13.15-.34-.06a.5.5,0,0,1-.28-.66,3.88,3.88,0,0,1,.33-.57c0-.07,0-.14,0-.08l.59.19c-.83.79-1.62,1.61-2.44,2.41-.77-.37-.38-1,0-1.47a6.6,6.6,0,0,0,.6-.79l.52.34a17.36,17.36,0,0,1-2.7,2.6L5,88.68c-.56.5-1.66,2.21-2.38,1-.75-2.25-.54-4.74-.71-7.06L3,83.1l-.73.73L1,85.16l.15-1.93a63,63,0,0,0,0-10.55l1.69.49c-.48.64-1.49,2.07-2,2.72l-.52-2c-.9-3.6.28-7.12,1.35-10.43l1.75,1.1a15.43,15.43,0,0,1-3.14,2A25.43,25.43,0,0,1,4.44,53.14l1.1,1.38-2.78.89A25,25,0,0,1,7,48.4a21.47,21.47,0,0,1,5.55-4,1.82,1.82,0,0,1,.9-.19,2.56,2.56,0,0,1,1.36,1,15.1,15.1,0,0,0,1.46,1.6c2,.94,4.19,1.36,6.18,2.31Zm-.08.18c-1.88-.84-4-1.28-5.94-1.94a2.62,2.62,0,0,1-1-.68c-.47-.42-1.44-1.7-2.05-1.76a2.93,2.93,0,0,0-1.12.52A17.68,17.68,0,0,0,8,49.24a20.37,20.37,0,0,0-2.64,5L4.19,53c.49-.2,2.65-1,3.19-1.2A35.56,35.56,0,0,0,3.67,59.3a24.46,24.46,0,0,0-1.12,5.53L1,63.81a4.54,4.54,0,0,0,1-.73l3.11-3c-1.18,4.2-3.75,9-2.88,13.37l-1.7-.33.83-1.08,1.53-2a57.32,57.32,0,0,1-.3,13.35l-1.19-.6.78-.68,1.18-1,0,1.5a38.55,38.55,0,0,0,.12,6.67.35.35,0,0,0-.19,0,3.37,3.37,0,0,0,.62-.48C5.23,87.29,7.32,86,8.54,84.47l.52.34c-.29.51-.77.85-1,1.35,0,0,0-.06,0,0l-.4,0c.91-.94,1.85-1.89,2.73-2.86l.06.77a.88.88,0,0,1-.11.5l-.16.29c0,.08-.09.16-.1.19s0,0,0,0a.29.29,0,0,0-.19-.27l-.3.12c2.09-2.39,4-4.9,6-7.43l1.17-1.56.05,1.93c0,.51-.08.79-.08,1.18a.67.67,0,0,0-.9-.46c2.32-2.83,4.86-7.34,7.11-10.83l.71,1.3.21.38H22.29a28.72,28.72,0,0,0,3.91-11c.26.13.81.36,1.08.48l-.61.4c.23-3.63-.53-8.42-4.32-9.95Z"/><path class="cls-3" d="M19.06,49.75C18.19,61.5,12.78,72.47,6.41,82.19c3.83-10.81,9.16-21.5,12.65-32.44Z"/><path class="cls-3" d="M15.29,63.59a30.21,30.21,0,0,1,2.26,6.25,28.75,28.75,0,0,0-3.91-5.12l1.65-1.13Z"/><polygon class="cls-3" points="13.69 68.96 8.56 71.44 12.6 67.28 13.69 68.96 13.69 68.96"/><path class="cls-3" d="M16.67,59.78a8.49,8.49,0,0,0-6.55,2.48,9.53,9.53,0,0,1,6.4-4.48l.15,2Z"/><path class="cls-4" d="M59.71,23.17c.34,1.56,1.67,2.7,2.29,4.17,1.07,2.55-.23,5.48-1.84,7.74s-3.62,4.38-4.2,7.1c-.19.9-.21,1.85-.48,2.74C54.29,49,49,50.25,46.73,53.84c-.91,1.46-1.36,3.37-2.88,4.18s-3.11.24-4.67-.09a18.45,18.45,0,0,0-8.89.32,6.55,6.55,0,0,1-3,.47c-2.08-.39-3-2.85-4.56-4.25-2-1.81-5.36-1.91-7-4.1C14.68,49,14.62,47,13.63,45.54s-2.39-2-3.71-2.92-2.58-2.2-2.52-3.79A8,8,0,0,1,8,36.71c1.24-3.69.2-7.7.2-11.58a4.87,4.87,0,0,1,.31-2c1-2.33,4.55-2.23,6.2-4.16A7.49,7.49,0,0,0,16,15.37c.47-2.63,1.4-5.57,3.84-6.65a7.63,7.63,0,0,1,3.68-.4,24.45,24.45,0,0,1,5.68,1.13c2.1.68,4.26,1.65,6.43,1.24a15.72,15.72,0,0,0,4-1.79,5.29,5.29,0,0,1,4.24-.6,8.82,8.82,0,0,1,2.36,1.79,10.65,10.65,0,0,0,7.3,2.54c1.37-.05,2.79-.36,4.05.18a4.35,4.35,0,0,1,2.35,3.64,12.7,12.7,0,0,1-.6,4.48"/><path class="cls-5" d="M50.41,35.32,46.89,37c-1.38,3.79-3.4,7.87-7,9.68a16.45,16.45,0,0,1-8.52,1.53,2.74,2.74,0,0,1-2.4,1.26c-2.41,0-4.82.11-7.22.12a3.16,3.16,0,0,1-.32,0l1.76,4.28c7.22.46,16.15-1.15,22.63-5.26a2.19,2.19,0,0,1,.16-.3c.94-1.21,1.86-2.45,2.7-3.73a24.07,24.07,0,0,0,2.2-6.48c.17-.81-.73-2.85-.21-3.2Z"/><path class="cls-5" d="M17.06,48s-2.47-2.51-2.34-7.46,3.9,3.86,3.9,3.86l3.29,5.71S18.66,49.7,17.06,48Z"/><path class="cls-5" d="M9,41.64l1.42-3.1a75.12,75.12,0,0,1,1.83-9.32c.92-2.71,2.86-6.46,4.87-8.14a33.32,33.32,0,0,1,4.3-3l1.85-2.79,1.77,1.26-3.77,5.05-3.34,2.12-2.09,5.79-1.4,9-1.82,5.21Z"/><path class="cls-5" d="M17.76,17.2l2.54-5.39s1-1.43,2.72-.21,2,.54,2,.54,1.57-2.25,3-1.69S36.3,15,36.3,15l-5.47-1.2-3.57-.73-1.58,3.24-3.09-1.62Z"/><path class="cls-5" d="M37.49,14.54l-.83-1.74L44.49,12h3.58s4.39,1.89,7.84,11.23-2.62.49-2.62.49l-3.43-4.9-3.3-4.46-3.94,1.2H38.69"/><path class="cls-5" d="M53.8,22l3,2.58s3.47,3.09,1.46,7.1-4.28,5.13-4.28,5.13l-1.16-2.83,3.14-4Z"/><path class="cls-5" d="M46,21s-2.46-3.27-9.34-3.53S28.39,24,28.39,24l2.63-.1.08-.12a3.86,3.86,0,0,1,1.4-1.29,5.75,5.75,0,0,1,3.18-1.05,3.53,3.53,0,0,1,1-.17c.25-.05.51-.08.76-.12l.86-.37.46.34a5.28,5.28,0,0,1,3,1.44,4.94,4.94,0,0,1,1,1.53l.69.5a5.36,5.36,0,0,1,2.75,3,5.24,5.24,0,0,1,.68,2,5.59,5.59,0,0,1,.41,1.62,4.33,4.33,0,0,1,.31.73,4.91,4.91,0,0,1-.41,3.66c.08,1.79.53,3.3,2.38-1.36C52.58,26.87,46,21,46,21Z"/><path class="cls-5" d="M32.76,26.66s4.47-3.15,7.34-.29,3.14,3.17,4,7.17A8.63,8.63,0,0,1,43,40.2s-2.74,6.75-9.55,2S36.16,41,36.16,41l4.13-2.8,1-4-2.49-5.11Z"/><path class="cls-5" d="M33.25,26s-5.8-.31-6.77,2.06-2.31,4-.94,9,6.82,3.9,6.82,3.9l1.83-2.39L29.3,37.38l-1.93-3.44,1.78-5.1Z"/><polygon class="cls-5" points="27.71 33.52 29.57 28.9 33.09 26.79 39.28 29.98 40.95 35.46 38.84 40.52 34.89 41.23 33.71 39.17 29.15 37.77 27.71 33.52"/><path class="cls-5" d="M29.15,43.92a7.48,7.48,0,0,1-7.57-.83c-3.85-2.77-2-12.76-2-12.76a9.4,9.4,0,0,1,4.92-5.79c3.94-2.12-1.89,5.12-1.89,5.12l-.36,5.51,1.83,5.35Z"/><path class="cls-3" d="M32.16,33.26a2.23,2.23,0,0,1,3.18-1.62c1.36.57,1.71,2.38,1.65,3.69a4.67,4.67,0,0,1-3.9,4.5c-6.84.57-7.35-8.73-3.14-12.36,2.95-2.95,7.46-1,10.27,1.16a8.76,8.76,0,0,1,.71,10.83,6,6,0,0,1-3.23,2,14.19,14.19,0,0,1-3.34-.13l0-.29c1-.38,2.11-.68,3-1.06.26-.12.18-.13.42-.34,1.93-1.55,2.08-4.38,1.3-6.65a7.11,7.11,0,0,0-1-2.12,11.37,11.37,0,0,0-4.76-2.58C30.5,27.9,28,30.87,28.2,33.65c0,3.22,4.77,5.15,6.3,2a4.78,4.78,0,0,0,.23-2.33c-.39-1-1.65-.77-2.3,0l-.27-.13Z"/><path class="cls-3" d="M31,23.77c1.26-3.79,6.39-5.71,10.12-4,2.6.94,4.18,3.51,5,5.93a24.27,24.27,0,0,1,2.17,10.8,13.42,13.42,0,0,1-2,7.41c-3.72,6.17-11.84,9.31-16.82,2.68a13.34,13.34,0,0,1-1.46-3.47l.26-.15a30.76,30.76,0,0,0,2.34,2.59,9.24,9.24,0,0,0,4.19,1.88,9,9,0,0,0,4.3-1A15.16,15.16,0,0,0,46.72,36.3a11.23,11.23,0,0,0-.14-6.84,21.94,21.94,0,0,0-4-5.55,7.84,7.84,0,0,0-11.26,0L31,23.77Z"/><path class="cls-3" d="M34.22,48.76a20.13,20.13,0,0,1-5.91,2,12.31,12.31,0,0,1-5,.15c-3-.88-3.55-4.27-5.12-6.47-1.33-2.29-3.37-3.93-4.83-6.17-.89-1.59-.33-3.75,0-5.22a39.43,39.43,0,0,1,1.85-5.92,16.22,16.22,0,0,1,2.43-4.37c2.38-2.5,6.21-1,8,1.35l-.17.25c-1.83-.69-4.47-1.7-5.74.13a33.72,33.72,0,0,0-1.49,3.82l-2.11,5.55c-.45,1.39-1,2.38-.84,3.67A25.34,25.34,0,0,0,21,46.11a10.28,10.28,0,0,0,2.06,1.79c1.52.8,3.28.42,5,.49,2,0,4,0,6.07.08l.07.29Z"/><path class="cls-3" d="M20.23,22.48a16.58,16.58,0,0,0,4-5.8c.6-1.26.78-2.12,1.48-3.49A3.06,3.06,0,0,1,26.82,12c1.39-.76,2.59.18,3.71.68A21.68,21.68,0,0,0,37.31,15a15.61,15.61,0,0,0,7.14-.85,5.55,5.55,0,0,1,2.14-.5,2.34,2.34,0,0,1,1.47.72c1.11,1.24,2,2.41,3,3.7,4.34,5.63,10.3,12.2,1.09,16.86A14.22,14.22,0,0,1,48,36.34l.1-.38.18-.64.3,0,.08.66-.38-.28c2.2-1.55,4.88-3.35,5.77-5.9.21-2.59-2-4.77-3.32-7s-3.21-4.95-4.45-7.18a3.76,3.76,0,0,0-1.49.07,49.45,49.45,0,0,1-7.58.3c-3,0-6.43-.26-9.3-1.55-.13,0,.11,0,.17,0-.49.72-1.21,2.42-1.84,3.35a10.81,10.81,0,0,1-5.89,5l-.14-.26Z"/><path class="cls-3" d="M52.66,34.33a20.93,20.93,0,0,1,5,8.2c1,2.39-.42,4.8-2.42,6.11-3.2,2.22-6.93,3.14-8.69,6.71-.78,1.24-.62,2.46-1.83,3.61s-3,.52-4.37.33a32.72,32.72,0,0,0-10.59,0c-1.44.16-2.45.62-4.09.46s-3.08-2-3.46-3.45a22.17,22.17,0,0,1-1.29-7.58l.29,0c1.19,2.73,2.29,5.65,4,7.92.62.54,1.18.17,2.07,0A24.15,24.15,0,0,1,40.88,57c3.6,1.48,2.93.66,4.76-2.12,2.06-3.14,5.48-5.55,8-8.1a6,6,0,0,0,1.69-2.25,8.88,8.88,0,0,0-.56-3c-.62-2.36-1.42-4.61-2.31-7l.25-.16Z"/><path class="cls-3" d="M22.23,54a4.93,4.93,0,0,1-5.3-1,18.66,18.66,0,0,1-1.48-2.39c-1-1.49-2.74-2.59-3.27-4.4a5.62,5.62,0,0,1,.11-4.9,5.73,5.73,0,0,1,2-2.85l.26.16.28,2.51a16.65,16.65,0,0,1,0,2.34c0,.58,0,1.43.07,2.07.21,1.42,0,3.38,1.24,4.44a6.45,6.45,0,0,0,2.21,1,9.25,9.25,0,0,1,1.9,1.15,18.33,18.33,0,0,1,2,1.6l-.05.3Z"/><path class="cls-3" d="M12.88,45.34C10,43.83,7.27,42,4.52,40.23,8,35,9,31.46,6.79,25.31a4.18,4.18,0,0,1-.28-1.46,2.5,2.5,0,0,1,1.12-1.78c3.66-2.27,7.22-4.31,10.8-6.53,1.34-.87,3.47-2.37,5.19-1.26.88.63,1,1.42,1.66,1.49l.09.29a1,1,0,0,1-.72.1c-.55-.1-1.19-.61-1.62-.66a1.88,1.88,0,0,0-1.4.59c-1,.92-2.22,2.22-3.39,3.1a36.38,36.38,0,0,1-9.51,5c-.13-.27-.11.41-.1.79,0,1.95.12,3.94.26,5.89.26,3.2.76,6.9-1.46,9.68L7.1,38.72a21.89,21.89,0,0,1,6,6.4l-.21.22Z"/><path class="cls-3" d="M14.6,19.24c-.16-3.51.36-7.14,2.55-9.95a3.9,3.9,0,0,1,2.24-.95A50.59,50.59,0,0,1,25.56,7,13.9,13.9,0,0,1,31.91,8.2a11.1,11.1,0,0,1,5.7,6.25l-.24.18A39.67,39.67,0,0,0,23.5,9a7,7,0,0,0-3.83.31A1.54,1.54,0,0,0,18.42,11a16.27,16.27,0,0,1-3.53,8.32l-.29-.09Z"/><path class="cls-3" d="M52.6,21.83A12,12,0,0,1,59,23.89c.9.69,1.62,1.57,2.62,2.24a3,3,0,0,1,1.19,1.59c1.51,5.15-.92,11.47-6.27,13.12-.14,0-.49,0-.48-.44a.31.31,0,0,1,.19-.21c.15-.09.37,0,.33.19h-.3s0,.08.09.12.08,0,.09,0,0,0,.08-.05c0-.38-.22-.16-.17-.38l.5-.93c1.22-2.26,2.34-4.55,3.45-6.85.46-1.35,1.43-2.93,1.5-4.38-.22-1.58-2.75-1.3-4-1.82a11,11,0,0,1-2.91-1.59,11.34,11.34,0,0,1-2.48-2.42l.14-.27Z"/><path class="cls-3" d="M33.34,10.57a58.28,58.28,0,0,0,10-5c2.11,1.92,3.59,5.06,6.37,5.65,3.25.81,6.91-1.06,10.07.61a3.06,3.06,0,0,1,1.06,2.54,39.41,39.41,0,0,1,0,5,13.27,13.27,0,0,0,1.1,7.29l-.22.22a9.35,9.35,0,0,1-3.79-7.46A30.65,30.65,0,0,1,57.74,14a.5.5,0,0,0,.21.24c-1.07-.41-3-.5-4.53-.87-4.15-.62-7.61-3.16-11.11-5.26l1.53.07a13.16,13.16,0,0,1-4.94,2.55,10.84,10.84,0,0,1-5.54.13l0-.3Z"/><path class="cls-3" d="M34.69,37.91c1,2.85-1.62,5.92-4.43,6.42-6.5,1.21-10.15-9.08-8.83-14.19.54-2.28,1.26-4.78,3.36-6.22,2.9-1.83,7.39-.75,8.85,2.28l-.22.2c-2.27-1.35-5.91-1.38-7.34.6-.31.46-.69,1.2-1,1.84-2.21,4.37-3.93,12.05,2.89,12.83a5.81,5.81,0,0,0,6.45-3.76Z"/><path class="cls-2" d="M202.66-.36l4-.19a32,32,0,0,0,24,8.19h0c1-.08,2-.2,3-.35h.05a48.72,48.72,0,0,0,9.61-2.56l.18-.07A54.8,54.8,0,0,0,250,1.72c.87-.47,1.5-.84,1.83-1A9.72,9.72,0,0,0,252.6,0l1.45,4.84s-3,1.74-4.75,2.6a52.69,52.69,0,0,1-5.12,2.14c-1.07.39-2.22.77-3.45,1.11h0c-.84.23-1.72.46-2.62.66l-.16,0a38.12,38.12,0,0,1-18.49-.19,31.39,31.39,0,0,1-9.18-4.27l-.08-.05-1.62-1.19A39.82,39.82,0,0,1,202.66-.36Z"/><path class="cls-3" d="M202.57-.4c1.24-.15,2.71-.4,4.18-.54a42.8,42.8,0,0,0,5.49,3.64c11.83,6.51,26.62,5.06,38.09-1.6l1.08-.65a11.66,11.66,0,0,0,1.38-1.27l.23.66,1.62,4.78.15.45A54.65,54.65,0,0,1,241,11.55s.71-.94.69-.89v.72l-.7.18c-14.25,4.54-30,1.06-38.41-12Zm.18.08a25.06,25.06,0,0,1,1.82,1.76c8.1,8.6,20.64,11.43,32.1,9.16,1.25-.21,2.54-.57,3.81-.85l-.69.91s0-.73,0-.74a55,55,0,0,0,13.94-5.66l-.28.72L252.19.08l.71.19a8.81,8.81,0,0,1-2.22,1.46c-15.14,7.81-30.77,11-44.29-2l.27.09c-1.21,0-2.47-.13-3.91-.14Z"/><polygon class="cls-2" points="222.21 12.4 219.05 16.44 219.46 11.17 222.21 12.4"/><path class="cls-3" d="M222.25,12.39a10.08,10.08,0,0,1-2.1,3.19A11.57,11.57,0,0,0,218.82,17l.07-.54c.11-2-.26-4,.16-6a15.56,15.56,0,0,1,3.2,2Zm-.09,0c-1.22-.33-2.11-.46-2.91-.78l.72-.43c0,1.78-.62,3.5-.76,5.24l-.28-.11a11.86,11.86,0,0,1,3.23-3.92Z"/><polygon class="cls-2" points="210.28 6.9 207.13 8.47 208.36 5.5 210.28 6.9"/><path class="cls-3" d="M210.33,6.9a4.8,4.8,0,0,1-2.2,1.43,5.55,5.55,0,0,0-1.35.48c.62-1.07.54-2.41,1.09-3.52l.27-.64a7.93,7.93,0,0,1,2.19,2.25Zm-.1,0c-.82-.42-1.51-.52-2.18-1l.81-.23c-.36,1-1.17,1.86-1.59,2.83l-.21-.2c.48-.26.74-.73,1.28-.9s1.08-.31,1.89-.54Z"/><polygon class="cls-2" points="240.73 10.65 240.73 14.55 237.95 11.35 240.73 10.65"/><path class="cls-3" d="M240.76,10.61a7,7,0,0,1,.16,3.94l-.09.51c-.56-1.12-1.72-1.7-2.56-2.59A17.52,17.52,0,0,1,237,11a11.53,11.53,0,0,1,3.78-.43Zm-.06.08a20.15,20.15,0,0,1-2.62,1.18l.27-.87c1,1,1.49,2.46,2.52,3.43l-.33.12c-.42-1.42-.14-2.32.16-3.86Z"/><polygon class="cls-2" points="233.72 7.27 232.01 3.85 230.64 7.63 233.72 7.27"/><path class="cls-3" d="M233.68,7.25c-.91-1.2-1.62-1.93-1.85-3.31l.36,0c-.61,1.2-.53,2.64-1.05,3.9l-.56-.71a17.84,17.84,0,0,1,3.1.14Zm.08,0a11.22,11.22,0,0,1-3.91,1l.29-.8c.45-1.42,1.59-2.57,1.76-4.07a7.49,7.49,0,0,1,1.86,3.92Z"/><path class="cls-2" d="M160.62-.24l3.83-.07c7.73,5.06,14.55,5.69,19.67,4.65h0a23,23,0,0,0,9.8-4.6l4.4,0a25.9,25.9,0,0,1-7.29,5.46,24.2,24.2,0,0,1-13,2.57h0C172.93,7.28,167,5,160.62-.24Z"/><path class="cls-3" d="M160.53-.27c1.27-.12,2.67-.39,4-.5a48.13,48.13,0,0,0,4.74,2.31c8,3.33,17.58,3.72,24.44-2l.09-.07h.13c1.83-.05,3.7-.18,5.53-.29l-.76.9C193.84,6,185.4,9.58,178,8.77c-6.75-.69-12.86-4.28-17.51-9Zm.18.07c5.32,3.29,11.1,6.45,17.42,6.87A26.28,26.28,0,0,0,198-.64l.38.83c-1.46,0-2.93-.11-4.4-.12-1.83,1.77-6.41,4-9.68,4.86a20.32,20.32,0,0,1-10.63-.12A27.76,27.76,0,0,1,164.2.06l.26.08c-1.24-.09-2.43-.3-3.75-.34Z"/><polygon class="cls-2" points="191.05 5.14 191.71 7.8 189.36 6.16 191.05 5.14"/><path class="cls-3" d="M191.07,5.1A3.25,3.25,0,0,1,191.88,7a11.15,11.15,0,0,0,0,1.3L191.61,8c-.72-.63-1.81-.73-2.56-1.36l-.69-.47a5.85,5.85,0,0,1,2.71-1Zm0,.09a14.52,14.52,0,0,1-1.4,1.42l0-.89c.84.48,1.31,1.48,2.14,1.94l-.27.19C190.89,7,191,6.38,191,5.19Z"/><polygon class="cls-2" points="178.07 7.71 176.75 11.17 175.43 7.63 178.07 7.71"/><path class="cls-3" d="M178.11,7.69a5.89,5.89,0,0,1-.67,2.67,13.19,13.19,0,0,0-.75,1.3c-.25-1.4-1.35-2.48-1.76-3.84l-.29-.75a9.65,9.65,0,0,1,3.47.62Zm-.09,0a19.79,19.79,0,0,1-2.61.43l.52-.72c.52,1.16.47,2.52,1,3.66h-.32A6.42,6.42,0,0,1,178,7.74Z"/><polygon class="cls-2" points="184.14 4.33 182.65 1.48 181.56 4.33 184.14 4.33"/><path class="cls-3" d="M184.1,4.31c-.85-1.06-1.44-1.52-1.6-2.75l.31,0c-.45.91-.35,2-.75,3l-.5-.72a14,14,0,0,1,2.54.51Zm.08.05a7.74,7.74,0,0,1-3.44.48l.33-.7c.38-1.08,1.34-1.92,1.49-3.08a13,13,0,0,0,.83,1,4.74,4.74,0,0,1,.79,2.26Z"/><polygon class="cls-2" points="244.82 7.69 243.24 4.54 246.22 5.77 244.82 7.69"/><path class="cls-3" d="M244.82,7.74a4.9,4.9,0,0,1-1.44-2.2,5.53,5.53,0,0,0-.47-1.35c1.06.62,2.4.54,3.52,1.09l.64.27a8.2,8.2,0,0,1-2.25,2.19Zm0-.1c.43-.82.53-1.51,1-2.18l.23.81c-1-.36-1.86-1.17-2.84-1.59l.2-.21c.27.48.74.74.9,1.28s.31,1.08.54,1.89Z"/><polygon class="cls-2" points="243.74 38.14 239.84 38.14 243.04 35.36 243.74 38.14"/><path class="cls-3" d="M243.78,38.17a7,7,0,0,1-3.94.16l-.51-.09c1.12-.56,1.7-1.72,2.59-2.56.4-.43,1-.91,1.43-1.3a11.61,11.61,0,0,1,.43,3.79Zm-.08-.06a21.62,21.62,0,0,1-1.18-2.62l.87.27c-1,1-2.46,1.49-3.43,2.52l-.12-.33c1.42-.42,2.32-.14,3.86.16Z"/><path class="cls-2" d="M252.48-.34c-24,20,0,56.08,0,56.08l.13-7s-18.1-25-.79-44.58Z"/><path class="cls-3" d="M252.43-.25a32,32,0,0,0-8.13,12.49c-4.5,13.69,1.17,31.4,8.42,43.33l-.56.17.11-7,.07.2c-9.57-13.37-13.5-32.36-1.29-45.44l-.25.53c.37-1.41,1.3-2.79,1.63-4.3Zm.1-.18a19.71,19.71,0,0,1,.26,5l-.22.26c-11.21,12.46-8.11,30.71.37,43.8v.1l-.17,7,0,1-.54-.83c-5.43-8.75-10.06-18.29-11.1-28.68-1.19-10.34,2.56-21.66,11.42-27.66Z"/><polygon class="cls-2" points="248.03 41.22 251.45 39.5 247.67 38.14 248.03 41.22"/><path class="cls-3" d="M248.06,41.17c1.2-.9,1.92-1.62,3.31-1.84l0,.36c-1.2-.62-2.65-.54-3.9-1l.71-.56a17.73,17.73,0,0,1-.14,3.09Zm-.05.09a11.28,11.28,0,0,1-.95-3.91l.79.29c1.42.45,2.57,1.58,4.08,1.75A7.47,7.47,0,0,1,248,41.26Z"/><polygon class="cls-2" points="241.07 26.57 237.03 23.42 241.79 23.42 241.07 26.57"/><path class="cls-3" d="M241.09,26.62a11,11,0,0,1-3.19-2.1,10.82,10.82,0,0,0-1.34-1.29,10.55,10.55,0,0,0,2.85-.22,22.36,22.36,0,0,1,3.06-.11,15.84,15.84,0,0,1-1.38,3.72Zm0-.1c.12-1.37,0-2.32.22-3.22l.52.65c-1.6.09-3.18-.38-4.76-.37l.1-.29a12.32,12.32,0,0,1,3.92,3.23Z"/></g></svg>