<?xml version="1.0" encoding="utf-8"?>
<!-- Generator: Adobe Illustrator 24.3.0, SVG Export Plug-In . SVG Version: 6.00 Build 0)  -->
<svg version="1.1" xmlns="http://www.w3.org/2000/svg" xmlns:xlink="http://www.w3.org/1999/xlink" x="0px" y="0px"
	 viewBox="0 0 252 144" style="enable-background:new 0 0 252 144;" xml:space="preserve">
<style type="text/css">
	.st0{fill:#FFFFFF;}
	.st1{fill:#F7B5B5;}
	.st2{fill:#B24242;}
	.st3{fill:#809FBC;}
	.st4{fill:#557049;}
	.st5{fill:#F9D05D;}
	.st6{display:none;}
	.st7{font-family:'MyriadPro-Regular';}
	.st8{font-size:4px;}
	.st9{letter-spacing:3;}
	.st10{display:inline;}
	.st11{letter-spacing:2;}
	.st12{display:inline;fill:none;stroke:#000000;stroke-width:0.25;stroke-miterlimit:10;}
	.st13{fill:#606060;}
	.st14{display:inline;fill:none;stroke:#000000;stroke-width:0.5;stroke-miterlimit:10;}
</style>
<g id="Layer_7">
	<rect class="st0" width="252" height="144"/>
</g>
<g id="Layer_1">
	<g>
		<path class="st1" d="M218.16,22.76l-47.93,0.15c0-0.05,0-0.1,0-0.15c0-26.29,21.64-47.93,47.93-47.93s47.93,21.64,47.93,47.93
			H218.16z"/>
		<g>
			<polygon class="st2" points="236.58,22.76 260.09,22.69 260.09,156 			"/>
			<polygon class="st3" points="260.09,155.93 236.58,155.93 236.58,22.69 			"/>
		</g>
		<circle class="st4" cx="192.02" cy="22.68" r="14.56"/>
		<circle class="st5" cx="198.66" cy="106.34" r="49.66"/>
	</g>
	<text transform="matrix(1 0 0 1 18.1512 25.1742)" class="st6 st7 st8 st9">GRAPHIC DESIGNER</text>
	<text transform="matrix(1 0 0 1 107.961 105.1739)" class="st6"><tspan x="0" y="0" class="st10 st7 st8 st11">@audrey.moniz</tspan><tspan x="0" y="10" class="st10 st7 st8 st11">audreym127@gmail.com</tspan><tspan x="0" y="20" class="st10 st7 st8 st11">www.insertportfoliohere.com</tspan></text>
</g>
<g id="line" class="st6">
	<line class="st12" x1="104" y1="21" x2="104" y2="127"/>
</g>
<g id="Layer_5">
	<rect x="-37" y="-38" class="st13" width="309" height="38"/>
	<rect x="252" y="-17" class="st13" width="24" height="185"/>
	<rect x="-21" y="144" class="st13" width="282" height="62"/>
	<rect x="-24" y="-20" class="st13" width="24" height="185"/>
</g>
<g id="grid_lines" class="st6">
</g>
<g id="Layer_3" class="st6">
	<line class="st14" x1="23.5" y1="102" x2="23.5" y2="126"/>
	<line class="st14" x1="229.56" y1="18.8" x2="229.56" y2="25.2"/>
</g>
<g id="Layer_2" class="st6">
</g>
</svg>
