<svg xmlns="http://www.w3.org/2000/svg" viewBox="0 0 252 144"><defs><style>.cls-1{fill:#598749;}.cls-2{fill:#231f20;}</style></defs><g id="Layer_5" data-name="Layer 5"><path class="cls-1" d="M203,.27c20,24,49.45,6,49.45,6V.85S226.71,17.57,207.15.27Z"/><path class="cls-2" d="M203.11.31c6.17,6.4,14.35,11,23.34,11.46A47.78,47.78,0,0,0,252.31,6l-.15.26c0-1.81,0-3.62,0-5.43l.52.28a57,57,0,0,1-11,5.35C230,10.89,215.76,9.87,206.47,1l.68.26c-1.3-.17-2.65-.84-4-1Zm-.18-.08a14.94,14.94,0,0,1,4.57-1l.32.28c10.86,9.74,26.3,9.19,39.08,3.75a40.87,40.87,0,0,0,5.9-3V.85c0,1.87,0,3.74,0,5.6A58.47,58.47,0,0,1,240,12c-13.59,4.36-28.89.32-37.1-11.72Z"/><polygon class="cls-1" points="222.57 12.77 219.41 16.8 219.82 11.53 222.57 12.77"/><path class="cls-2" d="M222.62,12.75a10.29,10.29,0,0,1-2.11,3.19,11.57,11.57,0,0,0-1.33,1.39l.08-.54c.1-2-.27-4,.15-6a15.38,15.38,0,0,1,3.21,2Zm-.1,0c-1.21-.33-2.11-.46-2.91-.78l.73-.43c0,1.78-.62,3.5-.77,5.25l-.28-.11a11.79,11.79,0,0,1,3.23-3.93Z"/><polygon class="cls-1" points="210.64 7.26 207.49 8.84 208.73 5.86 210.64 7.26"/><path class="cls-2" d="M210.69,7.26a4.8,4.8,0,0,1-2.2,1.43,5.55,5.55,0,0,0-1.35.48c.62-1.07.54-2.4,1.09-3.52L208.5,5a8.07,8.07,0,0,1,2.19,2.25Zm-.1,0c-.82-.42-1.5-.52-2.18-1l.81-.23c-.35,1-1.17,1.86-1.58,2.83l-.22-.2c.49-.26.74-.73,1.28-.89s1.08-.32,1.89-.55Z"/><polygon class="cls-1" points="241.09 11.01 241.09 14.91 238.31 11.71 241.09 11.01"/><path class="cls-2" d="M241.12,11a7,7,0,0,1,.16,3.94l-.09.51c-.56-1.12-1.72-1.7-2.55-2.59a17.64,17.64,0,0,1-1.3-1.43,11.53,11.53,0,0,1,3.78-.43Zm-.06.08a20.15,20.15,0,0,1-2.62,1.18l.27-.87c1,1,1.49,2.46,2.52,3.43l-.33.12a7.19,7.19,0,0,1,.16-3.86Z"/><polygon class="cls-1" points="234.08 7.63 232.37 4.22 231 8 234.08 7.63"/><path class="cls-2" d="M234,7.61c-.91-1.2-1.62-1.92-1.84-3.31l.35,0c-.61,1.2-.53,2.65-1,3.9l-.57-.71a17.84,17.84,0,0,1,3.1.14Zm.09,0a11.28,11.28,0,0,1-3.92.95l.29-.8c.45-1.41,1.59-2.57,1.76-4.07a7.62,7.62,0,0,1,1.87,3.92Z"/><path class="cls-1" d="M161,.27c21.86,17.76,37.61,0,37.61,0h-4.44s-12.53,11-29.35,0Z"/><path class="cls-2" d="M161.45.44c3,1.41,5.43,3.68,8.56,4.88a24.67,24.67,0,0,0,28.2-5.38l.38.83h-4.44l.33-.13a24.47,24.47,0,0,1-16.93,4.49,28.85,28.85,0,0,1-3.87-.7l-1.88-.6c-1.07-.29-2.64-1-3.68-1.42-1.2-.55-2.36-1.18-3.59-1.72l.27.08a23.61,23.61,0,0,1-3.35-.33ZM160.51.1a31.67,31.67,0,0,1,4.43-.33,28.4,28.4,0,0,0,5.12,3.13,26.3,26.3,0,0,0,3.67,1.35,29.73,29.73,0,0,0,3.85.64A21.77,21.77,0,0,0,194-.22h5.81c-7.51,8.46-19.86,11.39-30.16,6.47-3.26-1.54-6.74-3.39-9.09-6.14Z"/><polygon class="cls-1" points="191.41 5.5 192.07 8.16 189.72 6.52 191.41 5.5"/><path class="cls-2" d="M191.43,5.46a3.19,3.19,0,0,1,.81,1.87c0,.44,0,.88,0,1.3L192,8.31c-.71-.63-1.81-.73-2.56-1.35l-.68-.48a5.77,5.77,0,0,1,2.7-1Zm0,.09A16.44,16.44,0,0,1,190,7l0-.9c.84.48,1.31,1.48,2.14,1.94l-.27.19c-.65-.87-.51-1.47-.51-2.66Z"/><polygon class="cls-1" points="178.43 8.08 177.11 11.53 175.79 8 178.43 8.08"/><path class="cls-2" d="M178.47,8.05a6,6,0,0,1-.66,2.67,11.55,11.55,0,0,0-.76,1.3c-.24-1.4-1.35-2.48-1.76-3.84L175,7.43a9.59,9.59,0,0,1,3.46.62Zm-.08,0a18.34,18.34,0,0,1-2.62.43l.52-.72c.52,1.16.47,2.52,1,3.66H177a6.39,6.39,0,0,1,1.44-3.37Z"/><polygon class="cls-1" points="184.5 4.69 183.01 1.84 181.92 4.69 184.5 4.69"/><path class="cls-2" d="M184.46,4.67c-.85-1.06-1.44-1.52-1.6-2.75l.32,0c-.46.91-.36,2-.76,3l-.5-.72a14.91,14.91,0,0,1,2.54.51Zm.08,0a7.57,7.57,0,0,1-3.43.48l.32-.7c.38-1.08,1.34-1.92,1.5-3.08a12.51,12.51,0,0,0,.82,1.05,4.67,4.67,0,0,1,.79,2.25Z"/><polygon class="cls-1" points="240.56 26.93 236.53 23.78 241.8 24.19 240.56 26.93"/><path class="cls-2" d="M240.58,27a10.08,10.08,0,0,1-3.19-2.1A12.51,12.51,0,0,0,236,23.54l.54.08c2,.1,4.05-.26,6,.15a15.38,15.38,0,0,1-2,3.21Zm0-.1c.33-1.21.46-2.1.78-2.91l.43.73c-1.78,0-3.5-.62-5.24-.76l.11-.29a12.11,12.11,0,0,1,3.92,3.23Z"/><polygon class="cls-1" points="245.18 8.05 243.6 4.9 246.58 6.13 245.18 8.05"/><path class="cls-2" d="M245.18,8.1a4.9,4.9,0,0,1-1.44-2.2,5.53,5.53,0,0,0-.47-1.35c1.07.62,2.4.54,3.52,1.09l.64.27a8.07,8.07,0,0,1-2.25,2.19Zm0-.1c.42-.82.52-1.5,1-2.18l.23.81c-1-.35-1.86-1.17-2.84-1.59l.2-.21c.27.48.74.74.9,1.28s.31,1.08.55,1.89Z"/><polygon class="cls-1" points="244.1 38.5 240.2 38.5 243.4 35.72 244.1 38.5"/><path class="cls-2" d="M244.14,38.53a7,7,0,0,1-3.94.16l-.51-.09c1.12-.56,1.71-1.72,2.59-2.56a16.14,16.14,0,0,1,1.44-1.29,11.24,11.24,0,0,1,.42,3.78Zm-.08-.06a21.62,21.62,0,0,1-1.18-2.62l.87.27c-1,1-2.46,1.49-3.42,2.52l-.13-.33a7.19,7.19,0,0,1,3.86.16Z"/><path class="cls-1" d="M252.17.43c-24,20,0,54.91,0,54.91V47.7s-17.3-23.58,0-43.14Z"/><path class="cls-2" d="M252.13.52a32,32,0,0,0-8.07,12.22c-4.61,13.49,1,30.78,8.36,42.43l-.55.17,0-7.64.06.2c-9.52-13.23-12.34-31.24-.49-44l-.26.68c.16-1.3.84-2.65,1-4Zm.08-.18a14.82,14.82,0,0,1,1,4.56l-.28.33c-10.89,12.2-8.85,29.38-.43,42.37v.1l0,7.64v1l-.55-.83c-5.46-8.52-10.13-17.86-11.13-28.09C239.62,17.24,243.53,6.22,252.21.34Z"/><polygon class="cls-1" points="248.4 41.58 251.81 39.87 248.03 38.5 248.4 41.58"/><path class="cls-2" d="M248.42,41.53c1.2-.9,1.93-1.62,3.31-1.84l0,.36c-1.2-.61-2.65-.53-3.9-1l.71-.56a17.73,17.73,0,0,1-.14,3.09Zm0,.09a11.28,11.28,0,0,1-1-3.91l.8.29c1.41.45,2.57,1.58,4.07,1.75a7.47,7.47,0,0,1-3.92,1.87Z"/><path class="cls-1" d="M49.44,144.05H45.31a31.14,31.14,0,0,0-23.85-7.73h0c-1,.08-2,.2-3,.35h-.05a48.72,48.72,0,0,0-9.61,2.56l-.18.07a54.8,54.8,0,0,0-6.47,2.93c-.87.47-1.5.84-1.83,1l-.29.18V138s1-.62,2.8-1.48a52.69,52.69,0,0,1,5.12-2.14c1.07-.39,2.22-.77,3.45-1.11h0c.84-.23,1.72-.46,2.62-.66l.16,0a38.12,38.12,0,0,1,18.49.19,31.39,31.39,0,0,1,9.18,4.27l.08.05,1.62,1.19A37.48,37.48,0,0,1,49.44,144.05Z"/><path class="cls-2" d="M49.53,144.1c-1.29.08-2.82.27-4.34.34a39.18,39.18,0,0,0-5.44-3.57c-11.7-6.07-26.2-4.61-37.51,1.72-.88.52-1.78,1.08-2.64,1.66l0-.78L-.62,138v-.35l.31-.17a48.5,48.5,0,0,1,11.44-5.11l-.69.9v-.73l.7-.19c14.31-4.51,29.67-1,38.41,11.71Zm-.18-.09c-9.63-9.73-20.36-13-33.92-10.65-1.25.21-2.54.57-3.81.85l.69-.91s0,.71,0,.71l-.68.21a60.66,60.66,0,0,0-11.3,4.35l.3-.53-.19,5.43-.65-.36L1.9,142c14.47-7.33,30.8-10.72,43.66,1.81l-.25-.09c1.25.07,2.55.25,4,.33Z"/><polygon class="cls-1" points="29.89 131.56 33.05 127.52 32.64 132.79 29.89 131.56"/><path class="cls-2" d="M29.85,131.57a10.08,10.08,0,0,1,2.1-3.19A11.57,11.57,0,0,0,33.28,127l-.07.54c-.11,2,.26,4.05-.16,6a15.56,15.56,0,0,1-3.2-2Zm.09,0c1.22.33,2.11.46,2.91.78l-.72.43c0-1.78.62-3.5.76-5.24l.28.11a11.86,11.86,0,0,1-3.23,3.92Z"/><polygon class="cls-1" points="41.82 137.06 44.97 135.49 43.74 138.47 41.82 137.06"/><path class="cls-2" d="M41.77,137.06a4.8,4.8,0,0,1,2.2-1.43,5.55,5.55,0,0,0,1.35-.48c-.62,1.07-.54,2.41-1.09,3.52l-.27.64a7.93,7.93,0,0,1-2.19-2.25Zm.1,0c.82.42,1.51.52,2.18,1l-.81.23c.35-1,1.17-1.86,1.59-2.83l.21.2c-.48.26-.74.73-1.28.89s-1.08.32-1.89.55Z"/><polygon class="cls-1" points="11.37 133.31 11.37 129.41 14.15 132.61 11.37 133.31"/><path class="cls-2" d="M11.34,133.35a7,7,0,0,1-.16-3.94l.09-.51c.56,1.12,1.72,1.7,2.56,2.59a17.52,17.52,0,0,1,1.29,1.43,11.53,11.53,0,0,1-3.78.43Zm.06-.08A20.15,20.15,0,0,1,14,132.09l-.27.87c-1-1-1.49-2.46-2.52-3.43l.33-.12c.42,1.42.14,2.31-.16,3.86Z"/><polygon class="cls-1" points="18.38 136.69 20.09 140.1 21.46 136.32 18.38 136.69"/><path class="cls-2" d="M18.42,136.71c.91,1.2,1.62,1.93,1.85,3.31l-.36,0c.61-1.2.53-2.65,1.05-3.9l.56.71a17.84,17.84,0,0,1-3.1-.14Zm-.08-.05a11.22,11.22,0,0,1,3.91-.95l-.29.8c-.45,1.42-1.59,2.57-1.76,4.07a7.49,7.49,0,0,1-1.86-3.92Z"/><path class="cls-1" d="M91.48,144.05H87.66C79.93,139,73.1,138.58,68,139.62h0a22.68,22.68,0,0,0-9.65,4.43H53.88a26,26,0,0,1,7.17-5.24,24.2,24.2,0,0,1,13-2.57h0C79.17,136.68,85.06,138.84,91.48,144.05Z"/><path class="cls-2" d="M91.53,144.07c-1.21,0-2.57.16-3.93.21a33.18,33.18,0,0,0-9.45-4c-6.86-1.61-14.27-.47-19.84,4-1.67,0-3.34.05-5,.09l.39-.43c10.93-11.62,26.66-10.31,37.84.18Zm-.1,0c-12-9-25.86-10.61-37.36.18l-.19-.42c1.48,0,2.95.08,4.43.08a23.49,23.49,0,0,1,25-2.66,27.06,27.06,0,0,1,4.38,2.61c1.2,0,2.42.17,3.77.21Z"/><polygon class="cls-1" points="61.05 138.82 60.39 136.16 62.74 137.8 61.05 138.82"/><path class="cls-2" d="M61,138.86a3.25,3.25,0,0,1-.81-1.87,11.15,11.15,0,0,0,0-1.3l.31.32c.72.63,1.81.73,2.56,1.36l.69.47a5.85,5.85,0,0,1-2.71,1Zm0-.09a14.52,14.52,0,0,1,1.4-1.42l0,.89c-.84-.48-1.31-1.48-2.14-1.94l.27-.19c.65.87.51,1.47.51,2.66Z"/><polygon class="cls-1" points="74.03 136.24 75.35 132.79 76.67 136.32 74.03 136.24"/><path class="cls-2" d="M74,136.27a5.89,5.89,0,0,1,.67-2.67,13.19,13.19,0,0,0,.75-1.3c.25,1.4,1.35,2.48,1.76,3.84l.29.75a9.65,9.65,0,0,1-3.47-.62Zm.08-.05a20.16,20.16,0,0,1,2.62-.43l-.52.72c-.52-1.16-.47-2.52-1-3.66h.32a6.36,6.36,0,0,1-1.44,3.37Z"/><polygon class="cls-1" points="67.96 139.63 69.45 142.48 70.54 139.63 67.96 139.63"/><path class="cls-2" d="M68,139.65c.85,1.06,1.44,1.52,1.6,2.75l-.32,0c.46-.91.36-2,.76-3l.5.72a14,14,0,0,1-2.54-.51Zm-.08-.05a7.74,7.74,0,0,1,3.44-.48l-.33.7c-.38,1.08-1.34,1.92-1.49,3.08a13,13,0,0,0-.83-1,4.74,4.74,0,0,1-.79-2.26Z"/><polygon class="cls-1" points="11.9 117.39 15.93 120.54 10.66 120.14 11.9 117.39"/><path class="cls-2" d="M11.88,117.34a10,10,0,0,1,3.19,2.11,11.57,11.57,0,0,0,1.39,1.33l-.54-.08c-2-.1-4,.26-6-.15a15.38,15.38,0,0,1,2-3.21Zm0,.1c-.33,1.21-.46,2.1-.78,2.91l-.43-.73c1.78,0,3.5.62,5.25.76l-.11.29a11.91,11.91,0,0,1-3.93-3.23Z"/><polygon class="cls-1" points="7.28 136.27 8.86 139.42 5.88 138.19 7.28 136.27"/><path class="cls-2" d="M7.28,136.22a4.9,4.9,0,0,1,1.44,2.2,5.53,5.53,0,0,0,.47,1.35c-1.06-.62-2.4-.54-3.52-1.09L5,138.41a8.2,8.2,0,0,1,2.25-2.19Zm0,.1c-.43.82-.53,1.51-1,2.18l-.23-.81c1,.36,1.86,1.17,2.84,1.59l-.2.21c-.27-.48-.74-.74-.9-1.28s-.31-1.08-.54-1.89Z"/><polygon class="cls-1" points="8.36 105.82 12.26 105.82 9.06 108.6 8.36 105.82"/><path class="cls-2" d="M8.32,105.79a7,7,0,0,1,3.94-.16l.51.09c-1.12.56-1.7,1.72-2.59,2.56-.4.43-1,.91-1.43,1.3a11.61,11.61,0,0,1-.43-3.79Zm.08.06a21.62,21.62,0,0,1,1.18,2.62l-.87-.27c1-1,2.46-1.49,3.43-2.52l.12.33c-1.42.42-2.32.14-3.86-.16Z"/><path class="cls-1" d="M.29,143.89c24-20,0-54.91,0-54.91v7.64s17.31,23.58,0,43.15Z"/><path class="cls-2" d="M.33,143.8A32,32,0,0,0,8.4,131.58C13,118.09,7.36,100.81,0,89.15L.6,89l0,7.64-.06-.2c9.52,13.23,12.35,31.25.49,44l.26-.67c-.16,1.29-.84,2.64-1,4ZM.25,144a15.42,15.42,0,0,1-1-4.55l.28-.34c10.89-12.2,8.85-29.38.43-42.37v-.1L0,89V88l.55.82C6,97.32,10.67,106.66,11.68,116.89,12.84,127.08,8.93,138.1.25,144Z"/><polygon class="cls-1" points="4.07 102.74 0.65 104.46 4.43 105.82 4.07 102.74"/><path class="cls-2" d="M4,102.79c-1.2.9-1.92,1.62-3.31,1.84l0-.36c1.2.62,2.65.54,3.9,1l-.71.56A17.73,17.73,0,0,1,4,102.79Zm0-.09a11.28,11.28,0,0,1,1,3.91l-.79-.29c-1.42-.45-2.58-1.58-4.08-1.75a7.47,7.47,0,0,1,3.92-1.87Z"/></g></svg>