<?xml version="1.0" encoding="UTF-8"?>
<svg width="700pt" height="700pt" version="1.1" viewBox="0 0 700 700" xmlns="http://www.w3.org/2000/svg">
 <path d="m542.5 105h-385c-13.926 0-27.277 5.5312-37.125 15.375-9.8438 9.8477-15.375 23.199-15.375 37.125v245c0 13.926 5.5312 27.277 15.375 37.125 9.8477 9.8438 23.199 15.375 37.125 15.375h385c13.926 0 27.277-5.5312 37.125-15.375 9.8438-9.8477 15.375-23.199 15.375-37.125v-245c0-13.926-5.5312-27.277-15.375-37.125-9.8477-9.8438-23.199-15.375-37.125-15.375zm-402.5 58.746 120.75 110.72-120.75 120.79zm221.83 134.17v0.003906c-3.2266 2.9609-7.4492 4.6016-11.828 4.6016s-8.6016-1.6406-11.828-4.6016l-172.27-157.92h368.2zm-75.25 0.21094 28 25.602v0.003906c9.6523 8.9336 22.32 13.895 35.473 13.895 13.152 0 25.82-4.9609 35.473-13.895l27.914-25.602 121.82 121.87h-370.51zm152.6-23.66 120.82-110.72v231.51z"/>
</svg>
