<?xml version="1.0" encoding="utf-8"?>
<!-- Generator: Adobe Illustrator 24.3.0, SVG Export Plug-In . SVG Version: 6.00 Build 0)  -->
<svg version="1.1" xmlns="http://www.w3.org/2000/svg" xmlns:xlink="http://www.w3.org/1999/xlink" x="0px" y="0px"
	 viewBox="0 0 252 144" style="enable-background:new 0 0 252 144;" xml:space="preserve">
<style type="text/css">
	.st0{display:none;}
	.st1{display:inline;}
	.st2{fill:#FFFFFF;}
	.st3{display:inline;fill:none;stroke:#FFFFFF;stroke-miterlimit:10;}
	.st4{display:inline;fill:#B24242;stroke:#FFFFFF;stroke-miterlimit:10;}
	.st5{display:inline;fill:#F7B5B5;stroke:#FFFFFF;stroke-miterlimit:10;}
	.st6{display:inline;fill:#809FBC;stroke:#FFFFFF;stroke-width:0.8352;stroke-miterlimit:10;}
	.st7{display:inline;fill:#557049;stroke:#FFFFFF;stroke-miterlimit:10;}
	.st8{display:inline;fill:#F9D05D;stroke:#FFFFFF;stroke-miterlimit:10;}
	.st9{display:inline;fill:#FFFFFF;stroke:#000000;stroke-width:0.8352;stroke-miterlimit:10;}
	.st10{display:inline;fill:#FFFFFF;stroke:#000000;stroke-miterlimit:10;}
	.st11{display:inline;fill:#231F20;}
	.st12{font-family:'MinionPro-Regular';}
	.st13{font-size:5px;}
	.st14{letter-spacing:4;}
	.st15{display:inline;fill:none;}
	.st16{fill:#F7B5B5;}
	.st17{fill:#B24242;}
	.st18{fill:#809FBC;}
	.st19{fill:#557049;}
	.st20{fill:#F9D05D;}
	.st21{font-family:'MyriadPro-Regular';}
	.st22{font-size:6px;}
	.st23{fill:#F7B5B5;stroke:#FFFFFF;stroke-width:0.75;stroke-miterlimit:10;}
	.st24{fill:#B24242;stroke:#FFFFFF;stroke-width:0.75;stroke-miterlimit:10;}
	.st25{fill:#809FBC;stroke:#FFFFFF;stroke-width:0.75;stroke-miterlimit:10;}
	.st26{fill:#557049;stroke:#FFFFFF;stroke-width:0.75;stroke-miterlimit:10;}
	.st27{fill:#F9D05D;stroke:#FFFFFF;stroke-width:0.75;stroke-miterlimit:10;}
</style>
<g id="Layer_3" class="st0">
	<rect x="-238" y="-292" class="st1" width="727" height="727"/>
</g>
<g id="Layer_10">
	<rect y="0" class="st2" width="252" height="144"/>
</g>
<g id="Layer_4" class="st0">
	<circle class="st3" cx="133" cy="72" r="224"/>
</g>
<g id="Layer_1" class="st0">
	<polygon class="st4" points="164.17,1.83 203.17,1.71 203.84,222.71 	"/>
	<path class="st5" d="M124,0L44.5,0.24c0-0.08,0-0.16,0-0.24c0-43.61,35.89-79.5,79.5-79.5S203.5-43.61,203.5,0H124z"/>
	<polygon class="st6" points="201.51,222.71 162.51,222.71 162.51,1.71 	"/>
	<circle class="st7" cx="65.39" cy="0.61" r="16.89"/>
	<circle class="st8" cx="99" cy="142" r="79.5"/>
</g>
<g id="Layer_1_copy_2">
</g>
<g id="Layer_1_copy" class="st0">
	<polygon class="st9" points="164.17,1.83 203.17,1.71 203.84,222.71 	"/>
	<path class="st10" d="M124,0L44.5,0.24c0-0.08,0-0.16,0-0.24c0-43.61,35.89-79.5,79.5-79.5S203.5-43.61,203.5,0H124z"/>
	<circle class="st10" cx="81" cy="142" r="79.5"/>
	<polygon class="st9" points="201.51,222.71 162.51,222.71 162.51,1.71 	"/>
	<circle class="st10" cx="61.39" cy="18.61" r="16.89"/>
</g>
<g id="Layer_6" class="st0">
	<text transform="matrix(1 0 0 1 68.7036 75.4174)" class="st11 st12 st13 st14"> AUDREY LUCIA MONIZ</text>
	<rect x="139.54" y="86.31" class="st15" width="16.65" height="0.64"/>
</g>
<g id="Layer_7">
	<g>
		<path class="st16" d="M127.33,52.17L117.2,52.2c0-0.01,0-0.02,0-0.03c0-5.56,4.57-10.13,10.13-10.13s10.13,4.57,10.13,10.13
			H127.33z"/>
		<g>
			<polygon class="st17" points="132.49,52.17 137.46,52.16 137.46,80.34 			"/>
			<polygon class="st18" points="137.46,80.33 132.49,80.33 132.49,52.16 			"/>
		</g>
		<circle class="st19" cx="121.8" cy="52.15" r="3.08"/>
		<circle class="st20" cx="123.21" cy="69.84" r="10.5"/>
	</g>
	<text transform="matrix(1 0 0 1 57.1353 105.5751)" class="st0 st21 st22 st14">AUDREY LUCIA MONIZ</text>
</g>
<g id="Layer_8" class="st0">
</g>
<g id="logo_with_stroke" class="st0">
	<g class="st1">
		<path class="st23" d="M127.33,52.5l-10.13,0.03c0-0.01,0-0.02,0-0.03c0-5.56,4.57-10.13,10.13-10.13s10.13,4.57,10.13,10.13
			H127.33z"/>
		<g>
			<polygon class="st24" points="132.49,52.5 137.46,52.49 137.46,80.68 			"/>
			<polygon class="st25" points="137.46,80.66 132.49,80.66 132.49,52.49 			"/>
		</g>
		<circle class="st26" cx="121.8" cy="52.49" r="3.08"/>
		<circle class="st27" cx="123.21" cy="70.18" r="10.5"/>
	</g>
</g>
</svg>
