<svg id="Layer_1" data-name="Layer 1" xmlns="http://www.w3.org/2000/svg" viewBox="0 0 560 560"><path d="M472.67,9H99.33A93.33,93.33,0,0,0,6,102.33V475.67A93.31,93.31,0,0,0,99.33,569H472.67A93.31,93.31,0,0,0,566,475.67V102.33A93.33,93.33,0,0,0,472.67,9Zm46.67,466.67h0a46.64,46.64,0,0,1-46.66,46.66H99.33a46.64,46.64,0,0,1-46.66-46.66V102.33A46.64,46.64,0,0,1,99.33,55.67H472.67a46.64,46.64,0,0,1,46.66,46.66Z" transform="translate(-6 -9)"/><path d="M286,149a140,140,0,1,0,99,41A140,140,0,0,0,286,149Zm0,233.33A93.33,93.33,0,1,1,352,355,93.33,93.33,0,0,1,286,382.33Z" transform="translate(-6 -9)"/><path d="M472.67,137.33a35,35,0,1,1-35-35,35,35,0,0,1,35,35" transform="translate(-6 -9)"/></svg>