<?xml version="1.0" encoding="utf-8"?>
<!-- Generator: Adobe Illustrator 24.3.0, SVG Export Plug-In . SVG Version: 6.00 Build 0)  -->
<svg version="1.1" id="Layer_1" xmlns="http://www.w3.org/2000/svg" xmlns:xlink="http://www.w3.org/1999/xlink" x="0px" y="0px"
	 viewBox="0 0 78.7 42.1" style="enable-background:new 0 0 78.7 42.1;" xml:space="preserve">
<desc>Created with Sketch.</desc>
<g>
	<path d="M55.2,10.8c-5.5,0-10,4.5-10,10c0,5.5,4.5,10,10,10c5.5,0,10-4.5,10-10C65.3,15.3,60.8,10.8,55.2,10.8z M55.2,27.1
		c-3.5,0-6.3-2.8-6.3-6.3s2.8-6.3,6.3-6.3s6.3,2.8,6.3,6.3S58.7,27.1,55.2,27.1z"/>
	<path d="M71.4,4.7L71.4,4.7c-2.6-2.5-5.6-4-24.1-3.1c-3.5,0.1-6.2,1.1-8.2,3.1c-2,2-3,4.7-3.1,8.2c0,0.2-0.7,16.4,0.9,20.6
		c1,2.6,3,4.7,5.7,5.7c1.3,0.5,2.7,0.8,4.7,0.9c3.8,0.2,7.1,0.3,9.9,0.3c9.8,0,14.3-1.4,16.4-6.9c0.5-1.3,0.8-2.7,0.9-4.7
		C75.3,11.7,74.5,7.8,71.4,4.7z M70.8,28.5c-0.1,2-0.4,2.9-0.7,3.6c-1.6,4.4-5.3,5-22.7,4.2c-2-0.1-2.9-0.4-3.6-0.7
		c-1.7-0.7-3-1.9-3.5-3.5c-1.1-2.9-0.8-17-0.7-19.1c0.1-2,0.4-4.1,2.1-5.7c1.4-1.4,3.1-2.3,11.5-2.3C55.8,4.9,59,5,63,5.2
		c2,0.1,4.1,0.4,5.7,2.1C70.6,9.1,71.6,11.4,70.8,28.5z"/>
	<path d="M65.5,8.2c-0.6,0-1.2,0.2-1.6,0.6c-0.5,0.5-0.8,1.1-0.8,1.8c0,1.4,1.1,2.4,2.4,2.4S68,12,68,10.6C68,9.2,66.9,8.2,65.5,8.2
		z"/>
</g>
</svg>
