<svg xmlns="http://www.w3.org/2000/svg" viewBox="0 0 51 53"><g id="Layer_3" data-name="Layer 3"><path d="M46.11,36.38a7.3,7.3,0,0,1,4.17,5.14c1.67,7.07-5.86,13.1-12.64,10.65-3.84-1.18-6-4.77-7.2-8.35a76.63,76.63,0,0,1-5.12-17.71A77.07,77.07,0,0,1,35.59,41.42c.82,1.38,1.32,3.1,2.51,4.19a5.35,5.35,0,0,0,7.08.08c2.66-2.11,2.89-6.47.93-9.31Z"/><path d="M4.89,16.63A7.3,7.3,0,0,1,.72,11.49C-.95,4.42,6.58-1.61,13.36.84c3.84,1.17,6,4.77,7.2,8.34A76.71,76.71,0,0,1,25.68,26.9,77.07,77.07,0,0,1,15.41,11.59c-.82-1.38-1.32-3.1-2.51-4.19a5.35,5.35,0,0,0-7.08-.08c-2.66,2.1-2.89,6.46-.93,9.31Z"/><rect x="22.55" y="6.36" width="5.87" height="40.16" transform="translate(-8.79 13.25) rotate(-25)"/><path d="M48.36,14a11.4,11.4,0,0,0-2.73-7.34c-1.2-1.22-2.28-1.17-3.14.26a7.63,7.63,0,0,0-1.06,3.81c-.22,7.92-.86,15.78-3,23.52a99.16,99.16,0,0,1-3-23.54,11.58,11.58,0,0,1,2.28-7.27C39.49.94,43.55-.46,46.34,1.29c4.38,2.61,4.81,9,2,12.73Z"/><path d="M2.61,38.92A12.53,12.53,0,0,0,5.3,46.28a2.64,2.64,0,0,0,1.35.88c.34,0,.39-.1.56-.21A4,4,0,0,0,8,46a8.83,8.83,0,0,0,1-4c.08-3.87.33-7.75.78-11.62a74.31,74.31,0,0,1,2.18-11.63,98.38,98.38,0,0,1,3,23.25,12.15,12.15,0,0,1-1.94,7.14c-1.61,2.68-5.63,4.37-8.54,2.47-4.26-2.76-4.42-9-1.75-12.71Z"/></g></svg>