<?xml version="1.0" encoding="utf-8"?>
<!-- Generator: Adobe Illustrator 24.3.0, SVG Export Plug-In . SVG Version: 6.00 Build 0)  -->
<svg version="1.1" id="Layer_1" xmlns="http://www.w3.org/2000/svg" xmlns:xlink="http://www.w3.org/1999/xlink" x="0px" y="0px"
	 viewBox="0 0 21.9 20" style="enable-background:new 0 0 21.9 20;" xml:space="preserve">
<style type="text/css">
	.st0{fill-rule:evenodd;clip-rule:evenodd;}
</style>
<desc>Created with Sketch.</desc>
<g id="Page-1">
	<g id="Dribbble-Light-Preview" transform="translate(-340.000000, -7439.000000)">
		<g id="icons" transform="translate(56.000000, 160.000000)">
			<path id="instagram-_x5B__x23_167_x5D_" class="st0" d="M291.7,7279.1c-1.6,0.1-3,0.5-4.2,1.6c-1.1,1.1-1.5,2.6-1.6,4.2
				c0,1-0.3,8.6,0.5,10.6c0.5,1.3,1.6,2.4,2.9,2.9c0.6,0.2,1.4,0.4,2.4,0.5c8.9,0.4,12.1,0.2,13.5-3.4c0.2-0.6,0.4-1.4,0.5-2.4
				c0.4-8.9-0.1-10.8-1.6-12.4C302.9,7279.5,301.4,7278.7,291.7,7279.1 M291.8,7297.1c-1,0-1.5-0.2-1.8-0.3c-0.9-0.3-1.5-1-1.9-1.9
				c-0.6-1.5-0.4-8.7-0.3-9.9c0.1-1.1,0.3-2.2,1.1-3c1-1,2.3-1.5,11-1.1c1.1,0.1,2.2,0.3,3,1.1c1,1,1.5,2.3,1.1,11
				c0,1-0.2,1.5-0.3,1.8C302.7,7297.2,300.6,7297.5,291.8,7297.1 M299.9,7283.7c0,0.7,0.5,1.2,1.2,1.2c0.7,0,1.2-0.5,1.2-1.2
				c0-0.7-0.5-1.2-1.2-1.2C300.5,7282.5,299.9,7283,299.9,7283.7 M290.7,7289c0,2.8,2.3,5.1,5.1,5.1s5.1-2.3,5.1-5.1
				s-2.3-5.1-5.1-5.1S290.7,7286.2,290.7,7289 M292.5,7289c0-1.8,1.5-3.3,3.3-3.3c1.8,0,3.3,1.5,3.3,3.3c0,1.8-1.5,3.3-3.3,3.3
				C294,7292.3,292.5,7290.8,292.5,7289"/>
		</g>
	</g>
</g>
</svg>
