<?xml version="1.0" encoding="utf-8"?>
<!-- Generator: Adobe Illustrator 24.3.0, SVG Export Plug-In . SVG Version: 6.00 Build 0)  -->
<svg version="1.1" id="Layer_1" xmlns="http://www.w3.org/2000/svg" xmlns:xlink="http://www.w3.org/1999/xlink" x="0px" y="0px"
	 viewBox="0 0 39.2 36.8" style="enable-background:new 0 0 39.2 36.8;" xml:space="preserve">
<path d="M19.4,0.9C9.8,0.9,2,8.7,2,18.3s7.8,17.4,17.4,17.4s17.4-7.8,17.4-17.4C36.8,8.7,29,0.9,19.4,0.9z M28,24.2
	c0.4-1.5,0.6-3.1,0.7-4.9h6c-0.2,2.9-1.1,5.5-2.7,7.7C31.3,26.2,30,25.1,28,24.2z M6.7,27c-1.5-2.2-2.5-4.9-2.7-7.7h5.9
	c0.1,1.8,0.3,3.4,0.7,4.9C8.7,25.1,7.5,26.2,6.7,27z M10.7,12.3c-0.4,1.5-0.7,3.2-0.8,5H4.1c0.2-2.9,1.2-5.6,2.7-7.8
	C7.5,10.3,8.8,11.4,10.7,12.3z M20.4,14c2.3-0.1,4.2-0.4,5.7-0.9c0.3,1.3,0.6,2.7,0.6,4.2h-6.4L20.4,14L20.4,14z M20.4,12V3.2
	c1.1,1.1,3.6,3.8,5.1,7.9C24.1,11.6,22.4,11.9,20.4,12z M18.4,3.1V12c-2.1-0.1-3.8-0.4-5.2-0.8C14.8,6.9,17.3,4.2,18.4,3.1z
	 M18.4,14v3.3h-6.5c0.1-1.5,0.3-3,0.6-4.3C14.2,13.5,16.1,13.9,18.4,14z M11.9,19.3h6.5v3.2c-2.3,0.1-4.3,0.5-5.8,1
	C12.2,22.2,12,20.8,11.9,19.3z M18.4,24.5v8.8c-1.1-1-3.7-3.7-5.2-8C14.6,24.9,16.3,24.6,18.4,24.5z M20.4,33.3v-8.7
	c2.1,0.1,3.8,0.4,5.2,0.8C24,29.5,21.5,32.2,20.4,33.3z M20.4,22.5v-3.2h6.4c-0.1,1.5-0.3,2.9-0.6,4.1C24.6,23,22.7,22.6,20.4,22.5z
	 M28.8,17.3c-0.1-1.8-0.3-3.4-0.7-5c2-0.9,3.2-2,4-2.8c1.6,2.2,2.5,4.9,2.7,7.8H28.8z M30.7,7.9c-0.5,0.6-1.5,1.7-3.3,2.5
	c-1.1-3.1-2.7-5.4-4.1-7C26.2,4.2,28.8,5.8,30.7,7.9z M15.3,3.5c-1.3,1.6-2.9,3.9-4,6.9C9.6,9.5,8.6,8.6,8.1,7.9
	C10,5.8,12.5,4.2,15.3,3.5z M8,28.6c0.5-0.6,1.5-1.6,3.3-2.5c1.1,3.1,2.8,5.5,4.1,7C12.5,32.4,10,30.8,8,28.6z M23.2,33.2
	c1.4-1.6,3-3.9,4.2-7.1c1.8,0.9,2.9,1.9,3.4,2.6C28.8,30.8,26.2,32.4,23.2,33.2z"/>
</svg>
