<svg id="Layer_1" data-name="Layer 1" xmlns="http://www.w3.org/2000/svg" viewBox="0 0 490 490"><path d="M255,16A245.28,245.28,0,1,0,428.16,87.84,245,245,0,0,0,255,16ZM356.75,321.52A579.75,579.75,0,0,0,360,261a579.71,579.71,0,0,0-3.25-60.51C425.4,214.26,465,240.46,465,261S425.4,307.75,356.75,321.52ZM255,471c-20.55,0-46.74-39.6-60.52-108.25A580,580,0,0,0,255,366a580,580,0,0,0,60.52-3.25C301.74,431.4,275.55,471,255,471Zm0-140a563.26,563.26,0,0,1-66.2-3.8,578.25,578.25,0,0,1,0-132.41,579.38,579.38,0,0,1,132.41,0A563.54,563.54,0,0,1,325,261a563.25,563.25,0,0,1-3.79,66.2A565.71,565.71,0,0,1,255,331ZM45,261c0-20.55,39.6-46.74,108.25-60.52a564.16,564.16,0,0,0,0,121C84.6,307.74,45,281.55,45,261ZM255,51c20.55,0,46.74,39.6,60.52,108.25a564.16,564.16,0,0,0-121,0C208.26,90.6,234.45,51,255,51ZM455.64,199a314.64,314.64,0,0,0-103.95-34.68A315.09,315.09,0,0,0,317,60.37,210.93,210.93,0,0,1,455.64,199ZM193,60.37a314.64,314.64,0,0,0-34.68,104A315.09,315.09,0,0,0,54.37,199,210.93,210.93,0,0,1,193,60.37ZM54.37,323a314.64,314.64,0,0,0,104,34.68,315.09,315.09,0,0,0,34.68,104A210.93,210.93,0,0,1,54.37,323ZM317,461.65h0A314.71,314.71,0,0,0,351.69,357.7a314.88,314.88,0,0,0,104-34.69A210.93,210.93,0,0,1,317,461.64Z" transform="translate(-10 -16)"/></svg>